<svg width="422" height="75" viewBox="0 0 422 75" fill="none" xmlns="http://www.w3.org/2000/svg">
<path d="M5.55412 37.2876C6.36292 38.2745 7.26967 39.0465 8.27717 39.6008C9.28467 40.155 10.4293 40.4321 11.7111 40.4321C13.421 40.4321 14.7951 39.9542 15.8306 38.9984C16.8689 38.0427 17.3866 36.8239 17.3866 35.3421C17.3866 33.8604 17.0508 32.7349 16.3791 31.8724C15.7075 31.01 14.8287 30.3058 13.7457 29.7686C12.6626 29.2285 11.5096 28.7421 10.2894 28.3094C9.49456 28.0323 8.6102 27.6703 7.63349 27.2207C6.65677 26.7739 5.72483 26.2027 4.84047 25.5099C3.95611 24.8143 3.23127 23.9603 2.66595 22.9423C2.10064 21.9243 1.81798 20.6744 1.81798 19.1955C1.81798 17.5921 2.21538 16.1584 3.00739 14.8916C3.80219 13.6276 4.89925 12.6322 6.30415 11.9083C7.70905 11.1844 9.30985 10.8196 11.1122 10.8196C12.9145 10.8196 14.3697 11.1504 15.6683 11.815C16.9669 12.4795 18.0723 13.3278 18.9874 14.36C19.9026 15.3921 20.619 16.4808 21.1396 17.6232L17.798 19.5659C17.4006 18.7628 16.8969 17.9767 16.2868 17.2047C15.6767 16.4327 14.9351 15.8021 14.0647 15.3073C13.1943 14.8152 12.1337 14.5664 10.8827 14.5664C9.14194 14.5664 7.87697 14.9906 7.08216 15.8389C6.28736 16.6872 5.89275 17.6374 5.89275 18.6836C5.89275 19.5801 6.12224 20.4029 6.57841 21.158C7.03738 21.913 7.807 22.6228 8.89006 23.2873C9.97312 23.9518 11.448 24.605 13.3091 25.2526C14.1626 25.5608 15.0638 25.9624 16.0097 26.4544C16.9557 26.9493 17.8344 27.5714 18.6432 28.3292C19.452 29.0842 20.1153 29.9948 20.6358 31.058C21.1536 32.1213 21.4138 33.3938 21.4138 34.8755C21.4138 36.3573 21.1452 37.5761 20.6134 38.7157C20.0789 39.8581 19.3457 40.828 18.4165 41.6311C17.4846 42.4342 16.4323 43.0507 15.2569 43.4805C14.0815 43.9131 12.8529 44.128 11.5711 44.128C9.83039 44.128 8.22119 43.7491 6.74073 42.9941C5.26027 42.2391 3.96171 41.2352 2.84786 39.9853C1.73402 38.7355 0.824469 37.4007 0.124817 35.984L3.23687 33.8547C3.97011 35.1498 4.73972 36.2923 5.54852 37.2792L5.55412 37.2876Z" fill="white"/>
<path d="M28.0045 14.6143V43.7206H24.5062V14.6143H28.0045ZM26.4401 14.6143H32.3255C34.1894 14.6143 35.8574 14.9677 37.3267 15.6747C38.7931 16.3816 39.9601 17.3855 40.8249 18.6891C41.6897 19.9927 42.1207 21.5452 42.1207 23.3465C42.1207 25.1478 41.6897 26.6663 40.8249 27.984C39.9601 29.3018 38.7931 30.3141 37.3267 31.0182C35.8574 31.7252 34.1922 32.0786 32.3255 32.0786H26.4401V28.7532H32.3255C34.1894 28.7532 35.7063 28.2951 36.8733 27.3817C38.0375 26.4683 38.6224 25.1223 38.6224 23.3493C38.6224 21.5763 38.0403 20.1963 36.8733 19.2971C35.7063 18.395 34.1922 17.9454 32.3255 17.9454H26.4401V14.6199V14.6143Z" fill="white"/>
<path d="M48.496 14.6143V43.7206H44.9977V14.6143H48.496ZM46.9316 14.6143H61.4592V17.9397H46.9316V14.6143ZM46.9316 26.2562H60.6336V29.5817H46.9316V26.2562ZM46.9316 40.3952H61.4592V43.7206H46.9316V40.3952Z" fill="white"/>
<path d="M110.177 14.6143V43.7206H106.679V14.6143H110.177ZM125.816 14.6143L113.348 28.2527L126.434 43.7206H122.113L109.108 28.3375L121.495 14.6171H125.816V14.6143Z" fill="white"/>
<path d="M131.368 14.6143V43.7206H127.87V14.6143H131.368ZM129.807 14.6143H144.334V17.9397H129.807V14.6143ZM129.807 26.2591H143.509V29.5845H129.807V26.2591ZM129.807 40.3952H144.334V43.7206H129.807V40.3952Z" fill="white"/>
<path d="M151.944 14.6143V43.7206H148.446V14.6143H151.944ZM150.379 14.6143H156.265C158.129 14.6143 159.797 14.9677 161.266 15.6747C162.733 16.3816 163.9 17.3855 164.764 18.6891C165.629 19.9927 166.06 21.5452 166.06 23.3465C166.06 25.1478 165.629 26.6663 164.764 27.984C163.9 29.3018 162.733 30.3141 161.266 31.0182C159.797 31.7252 158.132 32.0786 156.265 32.0786H150.379V28.9596H156.265C157.499 28.9596 158.591 28.739 159.537 28.2951C160.482 27.8511 161.224 27.2149 161.759 26.3835C162.293 25.5521 162.562 24.5398 162.562 23.3493C162.562 22.1588 162.293 21.1464 161.759 20.3151C161.224 19.4837 160.482 18.8446 159.537 18.4035C158.591 17.9624 157.499 17.739 156.265 17.739H150.379V14.6199V14.6143ZM157.499 29.3753L167.787 43.7206H163.466L153.589 29.3753H157.499Z" fill="white"/>
<path d="M172.192 26.3836H176.84C177.8 26.3836 178.665 26.2168 179.432 25.8831C180.199 25.5522 180.803 25.0658 181.242 24.4268C181.682 23.7905 181.9 23.0129 181.9 22.0995C181.9 20.7139 181.419 19.6393 180.459 18.8758C179.499 18.1123 178.293 17.7334 176.837 17.7334H172.928V40.6017H177.249C178.483 40.6017 179.574 40.3811 180.52 39.9372C181.466 39.4932 182.208 38.8569 182.742 38.0256C183.277 37.1942 183.546 36.1819 183.546 34.9914C183.546 34.1034 183.395 33.3145 183.092 32.6217C182.79 31.9289 182.359 31.3464 181.797 30.8741C181.234 30.4019 180.568 30.0484 179.801 29.8137C179.032 29.579 178.181 29.4602 177.249 29.4602H172.186V27.5062H177.249C178.648 27.5062 179.938 27.6589 181.117 27.9643C182.295 28.2697 183.333 28.7335 184.223 29.3584C185.113 29.9805 185.807 30.778 186.302 31.7479C186.795 32.7178 187.044 33.8687 187.044 35.1978C187.044 37.1094 186.613 38.6986 185.748 39.9598C184.883 41.221 183.716 42.1626 182.25 42.7876C180.781 43.4097 179.115 43.7236 177.249 43.7236H169.43V14.6172H176.837C178.567 14.6172 180.067 14.8802 181.343 15.4061C182.619 15.9321 183.613 16.7295 184.326 17.7956C185.04 18.8617 185.396 20.2275 185.396 21.8902C185.396 23.2476 185.037 24.4126 184.326 25.3826C183.613 26.3525 182.619 27.0877 181.343 27.5854C180.067 28.0831 178.564 28.3348 176.837 28.3348H172.189V26.3808L172.192 26.3836Z" fill="#EBAC29"/>
<path d="M189.784 23.2421C190.511 21.4266 191.533 19.8487 192.848 18.5027C194.166 17.1595 195.714 16.1048 197.499 15.3441C199.282 14.5806 201.216 14.2017 203.301 14.2017C205.386 14.2017 207.353 14.5834 209.125 15.3441C210.894 16.1076 212.438 17.1595 213.754 18.5027C215.072 19.8487 216.093 21.4295 216.818 23.2421C217.546 25.0575 217.91 27.0341 217.91 29.1663C217.91 31.2984 217.546 33.2411 216.818 35.0707C216.091 36.9003 215.069 38.4867 213.754 39.8327C212.436 41.1787 210.894 42.2307 209.125 42.9942C207.356 43.7577 205.414 44.1366 203.301 44.1366C201.188 44.1366 199.282 43.7548 197.499 42.9942C195.717 42.2307 194.166 41.1787 192.848 39.8327C191.53 38.4895 190.509 36.9003 189.784 35.0707C189.056 33.2411 188.692 31.273 188.692 29.1663C188.692 27.0596 189.056 25.0575 189.784 23.2421ZM193.817 35.0311C194.762 36.7504 196.058 38.1077 197.707 39.106C199.352 40.1042 201.219 40.6019 203.304 40.6019C205.389 40.6019 207.289 40.1042 208.921 39.106C210.552 38.1077 211.842 36.7504 212.788 35.0311C213.734 33.3147 214.207 31.3578 214.207 29.1691C214.207 26.9804 213.734 25.0264 212.788 23.3071C211.842 21.5878 210.552 20.2305 208.921 19.2323C207.289 18.2341 205.417 17.7336 203.304 17.7336C201.191 17.7336 199.352 18.2341 197.707 19.2323C196.061 20.2305 194.765 21.5878 193.817 23.3071C192.871 25.0264 192.398 26.9804 192.398 29.1691C192.398 31.3578 192.871 33.3147 193.817 35.0311Z" fill="#EBAC29"/>
<path d="M220.235 23.2421C220.963 21.4266 221.985 19.8487 223.3 18.5027C224.618 17.1595 226.166 16.1048 227.951 15.3441C229.734 14.5806 231.668 14.2017 233.753 14.2017C235.838 14.2017 237.805 14.5834 239.577 15.3441C241.345 16.1076 242.89 17.1595 244.206 18.5027C245.524 19.8487 246.545 21.4295 247.27 23.2421C247.998 25.0575 248.361 27.0341 248.361 29.1663C248.361 31.2984 247.998 33.2411 247.27 35.0707C246.542 36.9003 245.521 38.4867 244.206 39.8327C242.887 41.1787 241.345 42.2307 239.577 42.9942C237.808 43.7577 235.866 44.1366 233.753 44.1366C231.64 44.1366 229.734 43.7548 227.951 42.9942C226.168 42.2307 224.618 41.1787 223.3 39.8327C221.982 38.4895 220.96 36.9003 220.235 35.0707C219.508 33.2411 219.144 31.273 219.144 29.1663C219.144 27.0596 219.508 25.0575 220.235 23.2421ZM224.268 35.0311C225.214 36.7504 226.51 38.1077 228.158 39.106C229.804 40.1042 231.671 40.6019 233.756 40.6019C235.84 40.6019 237.741 40.1042 239.372 39.106C241.004 38.1077 242.294 36.7504 243.24 35.0311C244.186 33.3147 244.659 31.3578 244.659 29.1691C244.659 26.9804 244.186 25.0264 243.24 23.3071C242.294 21.5878 241.004 20.2305 239.372 19.2323C237.741 18.2341 235.868 17.7336 233.756 17.7336C231.643 17.7336 229.804 18.2341 228.158 19.2323C226.513 20.2305 225.217 21.5878 224.268 23.3071C223.322 25.0264 222.849 26.9804 222.849 29.1691C222.849 31.3578 223.322 33.3147 224.268 35.0311Z" fill="#EBAC29"/>
<path d="M254.74 14.6143V43.7206H251.241V14.6143H254.74ZM270.378 14.6143L257.91 28.2527L270.997 43.7206H266.676L253.67 28.3375L266.057 14.6171H270.378V14.6143Z" fill="#EBAC29"/>
<path d="M275.931 14.6143V43.7206H272.432V14.6143H275.931Z" fill="#EBAC29"/>
<path d="M305.767 14.6144V45.1742L283.957 22.0571V43.7207H280.459V13.1609L302.268 36.2808V14.6172H305.767V14.6144Z" fill="#EBAC29"/>
<path d="M323.666 28.9598H337.041C337.041 30.9845 336.739 32.9045 336.137 34.72C335.533 36.5354 334.643 38.1501 333.462 39.5639C332.281 40.9778 330.834 42.092 329.121 42.912C327.405 43.7293 325.452 44.1393 323.258 44.1393C321.064 44.1393 319.239 43.7717 317.456 43.0365C315.674 42.3012 314.123 41.2634 312.805 39.9174C311.487 38.5742 310.465 36.985 309.741 35.1554C309.013 33.3259 308.649 31.3294 308.649 29.169C308.649 27.0086 309.013 25.0093 309.741 23.1798C310.468 21.3502 311.49 19.7638 312.805 18.4206C314.12 17.0774 315.671 16.0368 317.456 15.3016C319.239 14.5663 321.173 14.1987 323.258 14.1987C325.041 14.1987 326.681 14.4334 328.175 14.9057C329.67 15.3779 331.016 16.0707 332.208 16.9841C333.4 17.8975 334.41 19.0342 335.233 20.3944L332.765 22.6821C331.861 21.1296 330.599 19.9165 328.978 19.0427C327.358 18.1689 325.452 17.7335 323.258 17.7335C321.229 17.7335 319.39 18.2198 317.745 19.1898C316.099 20.1597 314.789 21.4972 313.815 23.2024C312.841 24.9075 312.355 26.8955 312.355 29.169C312.355 31.4426 312.841 33.3966 313.815 35.1158C314.789 36.8351 316.099 38.1783 317.745 39.1483C319.39 40.1182 321.229 40.6046 323.258 40.6046C324.685 40.6046 325.967 40.3897 327.106 39.9598C328.245 39.53 329.225 38.9277 330.047 38.1501C330.87 37.3752 331.55 36.4873 332.085 35.4891C332.619 34.4909 333.011 33.4248 333.257 32.2881H323.669V28.9626L323.666 28.9598Z" fill="#EBAC29"/>
<path d="M65.4891 52.5436L71.8951 32.6218L55.123 20.3097H75.8523L82.2584 0.387939L88.6644 20.3097H109.394L92.6216 32.6218L99.0276 52.5436L82.2556 40.2314L65.4835 52.5436H65.4891ZM82.2612 36.7363L93.7103 45.1404L89.3388 31.5416L100.788 23.1375H86.6382L82.2668 9.53865L77.8953 23.1375H63.7456L75.1947 31.5416L70.8232 45.1404L82.2696 36.7363H82.2612Z" fill="#EBAC29"/>
<path d="M268.131 58.3066L267.971 58.6686L265.903 63.6144H264.014L270.479 48.842L276.944 63.6144H275.055L273.026 58.7902L272.866 58.3886L270.479 52.7218L268.131 58.3095V58.3066ZM267.434 57.7863H273.599L274.195 59.3925H266.835L267.431 57.7863H267.434Z" fill="white"/>
<path d="M283.506 56.4769H289.971C289.971 57.4553 289.826 58.3828 289.535 59.2623C289.244 60.1417 288.813 60.9193 288.242 61.6037C287.671 62.288 286.971 62.8281 286.143 63.2212C285.314 63.617 284.368 63.815 283.308 63.815C282.247 63.815 281.365 63.6368 280.504 63.2834C279.642 62.9271 278.892 62.4265 278.256 61.7762C277.621 61.1258 277.126 60.3594 276.773 59.4743C276.42 58.5892 276.247 57.625 276.247 56.5815C276.247 55.5381 276.423 54.571 276.773 53.6859C277.123 52.8008 277.618 52.0344 278.256 51.384C278.894 50.7337 279.642 50.2331 280.504 49.8768C281.365 49.5205 282.3 49.3452 283.308 49.3452C284.17 49.3452 284.962 49.4583 285.684 49.6874C286.406 49.9164 287.055 50.2501 287.634 50.6912C288.214 51.1324 288.698 51.6838 289.095 52.3398L287.9 53.4455C287.464 52.6961 286.854 52.108 286.07 51.6866C285.286 51.2653 284.366 51.0532 283.305 51.0532C282.323 51.0532 281.435 51.2879 280.641 51.7573C279.846 52.2267 279.211 52.8743 278.74 53.6972C278.27 54.5201 278.035 55.4815 278.035 56.5815C278.035 57.6815 278.27 58.6232 278.74 59.4545C279.211 60.2859 279.843 60.9363 280.641 61.4029C281.435 61.8723 282.325 62.107 283.305 62.107C283.993 62.107 284.615 62.0024 285.166 61.7959C285.715 61.5867 286.19 61.2954 286.588 60.9222C286.985 60.5489 287.313 60.1191 287.573 59.6355C287.833 59.152 288.021 58.6373 288.141 58.0887H283.506V56.4797V56.4769Z" fill="white"/>
<path d="M293.153 49.5432V63.6143H291.463V49.5432H293.153ZM292.398 49.5432H299.419V51.1522H292.398V49.5432ZM292.398 55.1705H299.022V56.7795H292.398V55.1705ZM292.398 62.0053H299.419V63.6114H292.398V62.0053Z" fill="white"/>
<path d="M313.642 49.5432V64.3156L303.1 53.1402V63.6115H301.409V48.8391L311.952 60.0145V49.5432H313.642Z" fill="white"/>
<path d="M317.552 59.4517C318.036 60.2831 318.668 60.9335 319.452 61.4001C320.235 61.8695 321.083 62.1042 321.999 62.1042C322.662 62.1042 323.269 62.0165 323.818 61.844C324.366 61.6687 324.867 61.4255 325.32 61.1116C325.771 60.7977 326.157 60.433 326.474 60.0173V62.2682C325.891 62.7913 325.253 63.1787 324.565 63.4332C323.874 63.6877 323.02 63.815 321.999 63.815C321.03 63.815 320.126 63.6368 319.284 63.2834C318.442 62.9271 317.703 62.4265 317.065 61.7762C316.429 61.1258 315.931 60.3594 315.573 59.4743C315.215 58.5892 315.036 57.625 315.036 56.5815C315.036 55.5381 315.215 54.571 315.573 53.6859C315.931 52.8008 316.429 52.0344 317.065 51.384C317.7 50.7337 318.442 50.2331 319.284 49.8768C320.126 49.5205 321.03 49.3452 321.999 49.3452C323.02 49.3452 323.874 49.4725 324.565 49.727C325.253 49.9815 325.891 50.3717 326.474 50.892V53.1429C326.154 52.7272 325.771 52.3625 325.32 52.0486C324.87 51.7347 324.369 51.4887 323.818 51.3162C323.266 51.1409 322.659 51.056 321.999 51.056C321.083 51.056 320.235 51.2907 319.452 51.7601C318.668 52.2296 318.036 52.8771 317.552 53.7C317.067 54.5229 316.827 55.4843 316.827 56.5843C316.827 57.6844 317.067 58.626 317.552 59.4574V59.4517Z" fill="white"/>
<path d="M337.332 49.5432L332.698 57.543V63.6114H331.007V57.5628L326.373 49.5432H328.262L331.841 56.0556L335.44 49.5432H337.329H337.332Z" fill="white"/>
<mask id="mask0_1417_269" style="mask-type:luminance" maskUnits="userSpaceOnUse" x="352" y="0" width="70" height="56">
<path d="M408.157 12.8116C409.79 14.5788 411.2 16.5539 412.345 18.6927C412.163 17.792 411.975 16.7055 411.85 15.853C412.048 16.5252 412.224 17.2371 412.448 17.8436C412.51 17.5774 412.581 17.1522 412.891 16.8608C412.614 17.5381 412.63 18.2855 412.507 18.9996C413.538 20.9829 414.341 23.103 414.883 25.3257C414.831 24.3559 414.798 23.2539 414.792 22.3736C414.909 23.1583 414.994 23.9839 415.149 24.699C415.261 24.4106 415.408 23.9451 415.8 23.6673C415.385 24.3795 415.285 25.2153 415.037 25.9932C415.463 27.9498 415.688 29.9815 415.688 32.0658C415.688 40.7349 411.799 48.4968 405.671 53.7035C405.443 53.6255 405.214 53.5497 404.984 53.4756L404.983 53.4753L404.982 53.4747L404.98 53.4743L404.979 53.4738L404.977 53.4734L404.976 53.4729L404.973 53.4721L404.972 53.4717L404.971 53.4713L404.969 53.4708C404.582 53.346 404.192 53.2263 403.802 53.1123C403.979 52.9749 404.154 52.8361 404.327 52.6961C404.49 52.5643 404.651 52.4302 404.812 52.2949C404.773 51.5876 404.729 50.8813 404.496 50.2096C404.931 50.6655 405.002 51.3009 405.073 51.6999C405.453 50.8197 405.77 49.7798 406.118 48.8006C405.94 49.6778 405.708 50.7223 405.467 51.7226C407.352 50.0214 408.996 48.0593 410.345 45.8933C410.027 45.0529 409.813 44.162 409.295 43.4201C409.794 43.7148 410.016 44.259 410.178 44.5945C410.294 43.7207 410.315 42.7211 410.378 41.7675C410.463 42.8893 410.535 44.3134 410.565 45.5319C411.896 43.3172 412.92 40.8968 413.577 38.3298C413.054 37.6812 412.627 36.9411 411.962 36.4276C412.462 36.5447 412.793 36.9457 413.02 37.186C412.886 36.4169 412.639 35.5665 412.439 34.7441C412.828 35.7184 413.293 36.98 413.65 38.0362C414.155 35.9696 414.422 33.8102 414.422 31.5885C414.422 31.2649 414.416 30.9428 414.405 30.622C413.857 30.1829 413.341 29.6922 412.693 29.4093C413.178 29.4017 413.575 29.6934 413.838 29.862C413.538 29.1871 413.116 28.4639 412.743 27.7555C413.249 28.4559 413.858 29.3429 414.384 30.1459C414.263 27.8385 413.853 25.6073 413.19 23.4879C412.684 23.252 412.187 22.9886 411.634 22.8976C412.033 22.7893 412.422 22.9471 412.675 23.0309C412.286 22.5358 411.784 22.0268 411.327 21.5192C411.847 21.9535 412.471 22.4997 413.038 23.0148C412.447 21.243 411.679 19.5525 410.755 17.9644C410.127 17.8835 409.508 17.6787 408.872 17.7359C409.195 17.5521 409.569 17.602 409.807 17.6183C409.357 17.2755 408.808 16.9454 408.297 16.6067C409.019 16.9502 409.942 17.4206 410.67 17.8197C409.844 16.4217 408.897 15.1043 407.842 13.8819C407.226 13.8482 406.608 13.6959 405.993 13.7982C406.296 13.5947 406.665 13.6159 406.899 13.6141C406.434 13.3122 405.872 13.0301 405.348 12.7369C406.061 13.0123 406.971 13.3922 407.704 13.7228C407.567 13.5665 407.428 13.4117 407.287 13.2586C406.12 11.9861 404.898 10.8488 403.607 9.83172C403.011 9.90906 402.394 9.88586 401.827 10.0986C402.084 9.84076 402.45 9.79043 402.68 9.74363C402.166 9.5369 401.56 9.3682 400.989 9.18126C401.716 9.3096 402.641 9.4981 403.408 9.67625C400.973 7.79187 398.29 6.32828 395.254 5.189C397.296 5.50663 399.271 6.2356 401.122 7.23672C400.646 6.73269 400.111 6.1386 399.698 5.65672C400.115 6.02259 400.532 6.4245 400.938 6.73596C400.867 6.5316 400.735 6.21725 400.82 5.89202C400.915 6.43407 401.215 6.9069 401.432 7.40765C402.859 8.20847 404.209 9.16855 405.456 10.2229C404.972 9.49601 404.388 8.55821 403.96 7.82543C404.357 8.32618 404.748 8.86823 405.144 9.30501C405.106 9.05857 405.022 8.67474 405.184 8.32291C405.181 9.00102 405.458 9.63719 405.595 10.2941C405.59 10.3076 405.582 10.3166 405.571 10.3202C406.494 11.1088 407.36 11.948 408.157 12.8116ZM371.687 51.1637C371.937 51.1637 372.139 51.3661 372.139 51.6157C372.139 51.8654 371.937 52.0678 371.687 52.0678C371.438 52.0678 371.235 51.8654 371.235 51.6157C371.235 51.3661 371.438 51.1637 371.687 51.1637ZM370.697 51.7082C370.947 51.7082 371.149 51.9107 371.149 52.1604C371.149 52.4099 370.947 52.6122 370.697 52.6122C370.448 52.6122 370.245 52.4099 370.245 52.1604C370.245 51.9107 370.448 51.7082 370.697 51.7082ZM365.052 44.9248C365.302 44.9248 365.505 45.1274 365.505 45.3771C365.505 45.6267 365.302 45.8289 365.052 45.8289C364.803 45.8289 364.601 45.6267 364.601 45.3771C364.601 45.1274 364.803 44.9248 365.052 44.9248ZM361.815 29.7803C362.065 29.7803 362.267 29.9827 362.267 30.2323C362.267 30.482 362.065 30.6843 361.815 30.6843C361.565 30.6843 361.363 30.482 361.363 30.2323C361.363 29.9827 361.565 29.7803 361.815 29.7803ZM367.477 14.132C367.671 14.132 367.827 14.2887 367.827 14.4822C367.827 14.6755 367.671 14.8322 367.477 14.8322C367.284 14.8322 367.127 14.6755 367.127 14.4822C367.127 14.2887 367.284 14.132 367.477 14.132ZM372.661 10.123C372.854 10.123 373.011 10.2795 373.011 10.473C373.011 10.6665 372.854 10.8231 372.661 10.8231C372.468 10.8231 372.311 10.6665 372.311 10.473C372.311 10.2795 372.468 10.123 372.661 10.123ZM371.559 10.0618C371.752 10.0618 371.909 10.2184 371.909 10.4118C371.909 10.6051 371.752 10.7619 371.559 10.7619C371.365 10.7619 371.209 10.6051 371.209 10.4118C371.209 10.2184 371.365 10.0618 371.559 10.0618ZM376.765 7.36675C376.958 7.36675 377.115 7.5234 377.115 7.71689C377.115 7.91011 376.958 8.06676 376.765 8.06676C376.571 8.06676 376.415 7.91011 376.415 7.71689C376.415 7.5234 376.571 7.36675 376.765 7.36675ZM377.666 5.9982C377.843 5.9982 377.987 6.14161 377.987 6.31884C377.987 6.49607 377.843 6.63961 377.666 6.63961C377.489 6.63961 377.345 6.49607 377.345 6.31884C377.345 6.14161 377.489 5.9982 377.666 5.9982ZM377.349 3.95927C377.526 3.95927 377.67 4.10281 377.67 4.27991C377.67 4.45714 377.526 4.60081 377.349 4.60081C377.172 4.60081 377.028 4.45714 377.028 4.27991C377.028 4.10281 377.172 3.95927 377.349 3.95927ZM373.151 5.71296C373.344 5.71296 373.501 5.86961 373.501 6.06309C373.501 6.25631 373.344 6.41309 373.151 6.41309C372.958 6.41309 372.801 6.25631 372.801 6.06309C372.801 5.86961 372.958 5.71296 373.151 5.71296ZM368.925 8.10176C369.118 8.10176 369.275 8.25828 369.275 8.45176C369.275 8.64512 369.118 8.80177 368.925 8.80177C368.731 8.80177 368.575 8.64512 368.575 8.45176C368.575 8.25828 368.731 8.10176 368.925 8.10176ZM364.515 12.5729C364.708 12.5729 364.865 12.7297 364.865 12.923C364.865 13.1164 364.708 13.273 364.515 13.273C364.321 13.273 364.165 13.1164 364.165 12.923C364.165 12.7297 364.321 12.5729 364.515 12.5729ZM361.137 16.2627C361.33 16.2627 361.487 16.4194 361.487 16.6129C361.487 16.8062 361.33 16.963 361.137 16.963C360.943 16.963 360.787 16.8062 360.787 16.6129C360.787 16.4194 360.943 16.2627 361.137 16.2627ZM361.205 17.2872C361.399 17.2872 361.555 17.4438 361.555 17.6372C361.555 17.8307 361.399 17.9873 361.205 17.9873C361.012 17.9873 360.855 17.8307 360.855 17.6372C360.855 17.4438 361.012 17.2872 361.205 17.2872ZM364.756 18.0384C364.95 18.0384 365.106 18.195 365.106 18.3884C365.106 18.5817 364.95 18.7386 364.756 18.7386C364.563 18.7386 364.406 18.5817 364.406 18.3884C364.406 18.195 364.563 18.0384 364.756 18.0384ZM358.542 24.1164C358.735 24.1164 358.892 24.2731 358.892 24.4664C358.892 24.6599 358.735 24.8164 358.542 24.8164C358.348 24.8164 358.192 24.6599 358.192 24.4664C358.192 24.2731 358.348 24.1164 358.542 24.1164ZM358.135 23.3532C358.328 23.3532 358.485 23.5099 358.485 23.7034C358.485 23.8966 358.328 24.0534 358.135 24.0534C357.941 24.0534 357.785 23.8966 357.785 23.7034C357.785 23.5099 357.941 23.3532 358.135 23.3532ZM362.866 23.2007C363.06 23.2007 363.216 23.3573 363.216 23.5507C363.216 23.744 363.06 23.9008 362.866 23.9008C362.673 23.9008 362.516 23.744 362.516 23.5507C362.516 23.3573 362.673 23.2007 362.866 23.2007ZM361.95 23.5821C362.2 23.5821 362.402 23.7845 362.402 24.0341C362.402 24.2837 362.2 24.4862 361.95 24.4862C361.701 24.4862 361.498 24.2837 361.498 24.0341C361.498 23.7845 361.701 23.5821 361.95 23.5821ZM361.28 30.621C361.529 30.621 361.732 30.8235 361.732 31.073C361.732 31.3227 361.529 31.525 361.28 31.525C361.03 31.525 360.828 31.3227 360.828 31.073C360.828 30.8235 361.03 30.621 361.28 30.621ZM356.924 31.0797C357.173 31.0797 357.376 31.2819 357.376 31.5315C357.376 31.7811 357.173 31.9836 356.924 31.9836C356.674 31.9836 356.472 31.7811 356.472 31.5315C356.472 31.2819 356.674 31.0797 356.924 31.0797ZM357.535 39.4864C357.785 39.4864 357.987 39.6888 357.987 39.9384C357.987 40.188 357.785 40.3904 357.535 40.3904C357.285 40.3904 357.083 40.188 357.083 39.9384C357.083 39.6888 357.285 39.4864 357.535 39.4864ZM362.038 37.7291C362.288 37.7291 362.49 37.9315 362.49 38.181C362.49 38.4305 362.288 38.633 362.038 38.633C361.789 38.633 361.586 38.4305 361.586 38.181C361.586 37.9315 361.789 37.7291 362.038 37.7291ZM365.498 43.9347C365.748 43.9347 365.95 44.1373 365.95 44.3868C365.95 44.6363 365.748 44.8386 365.498 44.8386C365.248 44.8386 365.046 44.6363 365.046 44.3868C365.046 44.1373 365.248 43.9347 365.498 43.9347ZM360.925 48.0431C361.174 48.0431 361.377 48.2455 361.377 48.4953C361.377 48.7447 361.174 48.9471 360.925 48.9471C360.675 48.9471 360.473 48.7447 360.473 48.4953C360.473 48.2455 360.675 48.0431 360.925 48.0431ZM370.64 50.4452C370.936 50.4452 371.177 50.6856 371.177 50.9818C371.177 51.2784 370.936 51.5188 370.64 51.5188C370.343 51.5188 370.103 51.2784 370.103 50.9818C370.103 50.6856 370.343 50.4452 370.64 50.4452ZM384.149 4.28437C382.288 3.93397 379.785 5.07915 379.86 5.01138C382.188 2.90638 385.525 2.54432 387.141 4.62598C383.61 5.32389 382.881 7.78309 380.26 5.75425C380.199 5.70693 380.137 5.65698 380.073 5.60442C379.934 5.48906 382.04 4.62349 384.149 4.28437ZM381.092 4.79076C380.448 5.08033 379.762 5.35286 379.188 5.65856C379.462 5.68464 379.896 5.69749 380.228 5.96622C379.504 5.77968 378.748 5.90461 378.008 5.8738C377.968 5.84575 377.981 5.79384 378.067 5.76316C378.984 5.43702 380.174 5.05608 381.092 4.79076ZM380.826 2.44967C380.187 3.79345 378.303 4.85289 378.38 4.83677C380.793 4.33169 382.567 2.38059 381.992 0.391602C379.916 2.31124 378.018 1.63706 378.094 4.23901C378.095 4.29984 378.099 4.36276 378.103 4.42686C378.111 4.56922 379.635 3.63169 380.826 2.44967ZM379.09 4.15656C378.609 4.43132 378.119 4.74081 377.659 4.96419C377.769 4.77804 377.961 4.49673 377.944 4.16115C377.728 4.70765 377.299 5.12949 376.976 5.61399C376.976 5.6524 377.015 5.66747 377.074 5.62736C377.705 5.19621 378.497 4.61681 379.09 4.15656ZM376.24 3.63509C375.886 5.07981 374.254 6.49738 374.327 6.46579C376.588 5.48487 377.932 3.21627 376.968 1.38419C375.322 3.68268 373.326 3.4049 373.925 5.93803C373.939 5.99729 373.955 6.05837 373.972 6.12038C374.009 6.25815 375.313 5.03261 376.24 3.63509ZM374.885 5.65659C374.469 6.02259 374.051 6.42463 373.646 6.73596C373.716 6.5316 373.848 6.21712 373.763 5.89202C373.668 6.4342 373.368 6.90677 373.151 7.40778C371.724 8.20847 370.374 9.16842 369.127 10.2226C369.611 9.49587 370.195 8.55808 370.623 7.82543C370.226 8.32618 369.835 8.86823 369.439 9.30501C369.477 9.05857 369.561 8.67474 369.399 8.32291C369.402 9.00115 369.125 9.63705 368.988 10.2943C368.993 10.3077 369.001 10.3166 369.012 10.3203C368.089 11.1088 367.223 11.948 366.426 12.8116C364.793 14.5788 363.382 16.5539 362.238 18.6927C362.419 17.792 362.608 16.7057 362.733 15.8531C362.535 16.5253 362.359 17.2371 362.135 17.8435C362.073 17.5774 362.002 17.1522 361.693 16.8608C361.969 17.5382 361.953 18.2857 362.076 18.9996C361.045 20.9827 360.242 23.1026 359.7 25.3251C359.752 24.3555 359.785 23.2537 359.79 22.3736C359.674 23.1582 359.589 23.9839 359.434 24.6988C359.322 24.4103 359.175 23.9452 358.783 23.6675C359.198 24.3797 359.298 25.2153 359.546 25.9933C359.12 27.9498 358.895 29.9815 358.895 32.0658C358.895 40.731 362.78 48.4899 368.903 53.6965C369.523 53.4856 370.146 53.2891 370.773 53.1062C370.599 52.9707 370.427 52.834 370.256 52.6961C370.093 52.5643 369.931 52.4302 369.771 52.2949C369.81 51.5875 369.854 50.8813 370.087 50.2099C369.652 50.6655 369.581 51.3005 369.51 51.6997C369.131 50.8197 368.813 49.7796 368.465 48.8007C368.643 49.6779 368.876 50.7224 369.116 51.7229C367.231 50.0215 365.587 48.0593 364.238 45.8932C364.556 45.0528 364.77 44.1616 365.288 43.4202C364.789 43.7148 364.568 44.2586 364.405 44.5942C364.289 43.7208 364.268 42.7211 364.205 41.7676C364.12 42.8894 364.048 44.3134 364.018 45.5322C362.687 43.3173 361.663 40.8968 361.006 38.3297C361.529 37.6812 361.956 36.941 362.621 36.4279C362.121 36.5446 361.79 36.9455 361.563 37.1857C361.697 36.417 361.944 35.5665 362.144 34.7443C361.755 35.7187 361.29 36.98 360.933 38.0365C360.428 35.9697 360.161 33.8103 360.161 31.5885C360.161 31.2649 360.167 30.9427 360.178 30.6219C360.726 30.1829 361.243 29.6922 361.89 29.4096C361.405 29.4017 361.008 29.6935 360.745 29.8615C361.045 29.1873 361.467 28.4639 361.84 27.7555C361.334 28.4562 360.725 29.343 360.199 30.1463C360.32 27.8385 360.73 25.6073 361.393 23.4876C361.899 23.2519 362.396 22.9884 362.949 22.8978C362.55 22.7893 362.161 22.9471 361.908 23.0306C362.298 22.536 362.799 22.0268 363.256 21.5192C362.736 21.9538 362.112 22.4999 361.545 23.0149C362.136 21.2431 362.903 19.5525 363.828 17.9644C364.456 17.8835 365.075 17.6786 365.711 17.7359C365.388 17.5521 365.015 17.6019 364.776 17.6182C365.226 17.2755 365.775 16.9454 366.286 16.6066C365.565 16.9502 364.641 17.4206 363.913 17.8198C364.739 16.4217 365.686 15.1043 366.741 13.8821C367.357 13.8482 367.975 13.6958 368.59 13.7983C368.287 13.5947 367.919 13.6158 367.684 13.614C368.149 13.3122 368.71 13.0301 369.235 12.7367C368.522 13.0124 367.612 13.392 366.879 13.7228C367.016 13.5665 367.155 13.4117 367.296 13.2586C368.463 11.9861 369.685 10.8488 370.976 9.83172C371.572 9.90906 372.189 9.8856 372.756 10.0986C372.499 9.84076 372.133 9.79043 371.903 9.7435C372.417 9.5369 373.023 9.3682 373.594 9.18113C372.867 9.3096 371.942 9.4981 371.175 9.67625C373.61 7.79187 376.293 6.32828 379.329 5.189C377.287 5.50663 375.312 6.2356 373.462 7.23645C373.938 6.73242 374.472 6.1386 374.885 5.65659ZM371.746 5.25232C371.641 6.96484 370.08 8.909 370.156 8.85853C372.522 7.28024 373.58 4.42935 372.11 2.54786C370.714 5.49509 368.392 5.58974 369.592 8.34191C369.62 8.40628 369.65 8.47234 369.683 8.53933C369.753 8.68798 370.981 7.02921 371.746 5.25232ZM367.2 8.85997C367.257 10.7592 365.732 13.0614 365.811 12.9979C368.26 11.0178 369.139 7.76657 367.327 5.84064C366.085 9.23226 363.534 9.57177 365.137 12.4855C365.174 12.5535 365.214 12.6234 365.256 12.694C365.349 12.8505 366.535 10.8971 367.2 8.85997ZM366.221 11.8113C365.834 12.4038 365.457 13.0413 365.065 13.563C365.082 13.2873 365.137 12.8555 364.922 12.484C364.994 13.2313 364.752 13.9608 364.668 14.6996C364.69 14.7433 364.743 14.7378 364.787 14.6576C365.253 13.8 365.816 12.6797 366.221 11.8113ZM362.821 12.7752C363.416 14.5604 362.625 17.178 362.682 17.0953C364.441 14.5201 364.349 11.1866 362.082 9.87563C361.87 13.4457 359.547 14.4938 361.897 16.8007C361.952 16.855 362.009 16.9095 362.069 16.9648C362.202 17.087 362.771 14.8967 362.821 12.7752ZM381.248 7.51475C379.877 6.66518 377.537 6.80688 377.617 6.77621C380.114 5.81822 382.877 6.5548 383.522 8.70516C380.501 8.17543 379.167 9.90565 377.707 7.48919C377.673 7.43295 377.639 7.37396 377.605 7.31301C377.529 7.17838 379.469 7.13709 381.248 7.51475ZM378.664 6.97874C378.063 7.01138 377.435 7.01754 376.885 7.084C377.095 7.18887 377.435 7.33228 377.617 7.64794C377.098 7.27709 376.459 7.14456 375.881 6.89301C375.858 6.8584 375.884 6.82104 375.962 6.8234C376.79 6.84542 377.853 6.90808 378.664 6.97874ZM376.23 9.0296C374.685 8.56398 372.461 9.30698 372.531 9.25664C374.694 7.68477 377.554 7.68071 378.733 9.59078C375.679 9.86121 374.838 11.8779 372.802 9.92191C372.755 9.87616 372.707 9.82818 372.658 9.7781C372.55 9.66773 374.413 9.12568 376.23 9.0296ZM371.792 12.0808C370.187 11.9211 368.147 13.0784 368.206 13.0154C370.027 11.0566 372.832 10.5024 374.357 12.1496C371.412 13.003 370.975 15.1436 368.601 13.6159C368.545 13.5804 368.489 13.5427 368.431 13.5028C368.304 13.4151 370.028 12.5246 371.792 12.0808ZM368.836 15.7431C367.191 15.7042 365.206 17.0378 365.261 16.9692C366.962 14.8372 369.772 14.0578 371.45 15.6158C368.52 16.7103 368.241 18.9208 365.709 17.5496C365.649 17.5178 365.589 17.4835 365.527 17.4475C365.391 17.3683 367.076 16.3301 368.836 15.7431ZM359.403 18.9107C360.352 20.8176 359.878 23.8759 359.929 23.774C361.494 20.6104 360.865 16.8888 358.118 15.7772C358.443 19.8118 356.005 21.353 359.002 23.568C359.072 23.6199 359.145 23.6722 359.221 23.7246C359.39 23.8401 359.681 21.296 359.403 18.9107ZM365.768 19.8777C363.982 20.2935 362.211 22.2845 362.25 22.195C363.492 19.4218 366.308 17.7991 368.552 19.0131C365.695 21.0093 366.009 23.4727 362.895 22.6974C362.822 22.6793 362.747 22.6595 362.671 22.6376C362.502 22.5898 364.031 21.0009 365.768 19.8777ZM356.778 25.8111C358.325 27.6584 358.613 31.1487 358.641 31.0232C359.528 27.1288 357.852 23.2004 354.536 22.7032C355.96 27.0566 353.685 29.3964 357.568 31.0415C357.658 31.0799 357.753 31.1182 357.851 31.1557C358.066 31.2384 357.714 28.3621 356.778 25.8111ZM358.119 29.5189C358.198 30.4128 358.323 31.3439 358.341 32.1717C358.142 31.8837 357.858 31.4106 357.352 31.2089C358.011 31.897 358.342 32.8133 358.837 33.6157C358.894 33.642 358.942 33.5944 358.923 33.4801C358.715 32.2604 358.397 30.7028 358.119 29.5189ZM364.218 25.1654C362.31 26.1535 360.873 28.9267 360.893 28.8135C361.502 25.3047 364.232 22.6484 367.131 23.3792C364.463 26.4713 365.531 29.1789 361.77 29.1982C361.682 29.1984 361.592 29.1974 361.498 29.1946C361.293 29.1891 362.57 26.9427 364.218 25.1654ZM355.984 33.9021C358.18 35.4991 359.447 39.2363 359.444 39.0912C359.35 34.5919 356.445 30.7546 352.684 31.1166C355.43 35.4867 353.581 38.6662 358.275 39.4044C358.385 39.4219 358.499 39.4378 358.616 39.4519C358.874 39.4837 357.704 36.4351 355.984 33.9021ZM358.462 37.5892C358.793 38.5448 359.184 39.5288 359.43 40.4287C359.133 40.1682 358.694 39.7287 358.086 39.6461C358.993 40.2187 359.606 41.1299 360.367 41.8717C360.435 41.8854 360.476 41.8199 360.423 41.7005C359.862 40.4236 359.089 38.8076 358.462 37.5892ZM363.918 31.4763C362.214 32.9804 361.455 36.1936 361.445 36.0728C361.168 32.3174 363.284 28.8913 366.446 28.8955C364.505 32.7527 366.296 35.2552 362.444 36.2415C362.354 36.2648 362.261 36.2866 362.164 36.3079C361.952 36.3551 362.685 33.7225 363.918 31.4763ZM357.182 42.4655C360.045 43.5221 362.558 47.1766 362.51 47.021C361.033 42.1834 356.72 38.9205 352.762 40.4609C357.067 44.3487 356.039 48.3521 361.341 47.7166C361.466 47.702 361.593 47.6846 361.724 47.6642C362.013 47.6199 359.816 44.6798 357.182 42.4655ZM360.989 45.6964C361.639 46.6288 362.362 47.5736 362.903 48.4718C362.503 48.2809 361.893 47.9397 361.21 48.0361C362.367 48.3781 363.308 49.1763 364.357 49.7467C364.435 49.7403 364.459 49.6572 364.366 49.5439C363.369 48.3345 362.039 46.8227 360.989 45.6964ZM365.011 37.6475C363.685 39.8439 363.952 43.5624 363.901 43.435C362.334 39.483 363.455 35.0769 366.862 34.0125C366.075 38.824 368.85 40.9146 365.035 43.2793C364.945 43.3346 364.852 43.3901 364.755 43.4455C364.543 43.5681 364.442 40.4844 365.011 37.6475ZM361.452 51.0047C364.412 50.9472 367.973 53.3607 367.875 53.2365C364.831 49.3886 359.781 47.9658 356.75 50.7562C362.013 52.7467 362.5 56.7267 367.065 54.2783C367.172 54.221 367.282 54.1603 367.393 54.0957C367.638 53.9533 364.614 52.0738 361.452 51.0047ZM366.033 52.5776C366.73 53.0435 367.468 53.5007 368.136 53.9658C368.265 53.9193 368.394 53.8732 368.523 53.8279C367.664 53.3803 366.788 52.9399 366.033 52.5776ZM368.09 44.2508C367.351 46.9413 368.731 50.7536 368.64 50.6355C365.83 46.9635 365.701 42.0209 368.952 39.8991C369.551 45.1675 373.074 46.5339 369.78 50.1373C369.703 50.2218 369.622 50.3071 369.537 50.3938C369.351 50.5849 368.333 47.3877 368.09 44.2508ZM402.896 51.1637C402.646 51.1637 402.444 51.3661 402.444 51.6155C402.444 51.8652 402.646 52.0678 402.896 52.0678C403.145 52.0678 403.348 51.8652 403.348 51.6155C403.348 51.3661 403.145 51.1637 402.896 51.1637ZM403.886 51.7082C403.636 51.7082 403.434 51.9107 403.434 52.1603C403.434 52.4099 403.636 52.6122 403.886 52.6122C404.135 52.6122 404.338 52.4099 404.338 52.1603C404.338 51.9107 404.135 51.7082 403.886 51.7082ZM409.53 44.9248C409.281 44.9248 409.078 45.1275 409.078 45.3771C409.078 45.6264 409.281 45.8289 409.53 45.8289C409.78 45.8289 409.982 45.6264 409.982 45.3771C409.982 45.1275 409.78 44.9248 409.53 44.9248ZM412.768 29.7803C412.518 29.7803 412.316 29.9827 412.316 30.2322C412.316 30.4819 412.518 30.6843 412.768 30.6843C413.018 30.6843 413.22 30.4819 413.22 30.2322C413.22 29.9827 413.018 29.7803 412.768 29.7803ZM407.106 14.132C406.912 14.132 406.756 14.2888 406.756 14.482C406.756 14.6754 406.912 14.8322 407.106 14.8322C407.299 14.8322 407.456 14.6754 407.456 14.482C407.456 14.2888 407.299 14.132 407.106 14.132ZM401.922 10.123C401.729 10.123 401.572 10.2796 401.572 10.473C401.572 10.6664 401.729 10.8231 401.922 10.8231C402.115 10.8231 402.272 10.6664 402.272 10.473C402.272 10.2796 402.115 10.123 401.922 10.123ZM403.025 10.0618C402.831 10.0618 402.674 10.2186 402.674 10.4118C402.674 10.6051 402.831 10.7619 403.025 10.7619C403.218 10.7619 403.374 10.6051 403.374 10.4118C403.374 10.2186 403.218 10.0618 403.025 10.0618ZM397.818 7.36675C397.625 7.36675 397.468 7.5234 397.468 7.71689C397.468 7.91011 397.625 8.06676 397.818 8.06676C398.012 8.06676 398.168 7.91011 398.168 7.71689C398.168 7.5234 398.012 7.36675 397.818 7.36675ZM396.917 5.9982C396.74 5.9982 396.596 6.14161 396.596 6.31884C396.596 6.49594 396.74 6.63961 396.917 6.63961C397.094 6.63961 397.238 6.49594 397.238 6.31884C397.238 6.14161 397.094 5.9982 396.917 5.9982ZM397.234 3.95927C397.057 3.95927 396.913 4.10281 396.913 4.27991C396.913 4.45701 397.057 4.60081 397.234 4.60081C397.411 4.60081 397.555 4.45701 397.555 4.27991C397.555 4.10281 397.411 3.95927 397.234 3.95927ZM401.432 5.71296C401.238 5.71296 401.082 5.86974 401.082 6.06296C401.082 6.25631 401.238 6.41309 401.432 6.41309C401.625 6.41309 401.782 6.25631 401.782 6.06296C401.782 5.86974 401.625 5.71296 401.432 5.71296ZM405.658 8.10176C405.465 8.10176 405.308 8.25841 405.308 8.45176C405.308 8.64512 405.465 8.80177 405.658 8.80177C405.851 8.80177 406.008 8.64512 406.008 8.45176C406.008 8.25841 405.851 8.10176 405.658 8.10176ZM410.068 12.5729C409.875 12.5729 409.718 12.7298 409.718 12.923C409.718 13.1164 409.875 13.273 410.068 13.273C410.261 13.273 410.418 13.1164 410.418 12.923C410.418 12.7298 410.261 12.5729 410.068 12.5729ZM413.446 16.2627C413.253 16.2627 413.096 16.4196 413.096 16.6129C413.096 16.8061 413.253 16.963 413.446 16.963C413.64 16.963 413.796 16.8061 413.796 16.6129C413.796 16.4196 413.64 16.2627 413.446 16.2627ZM413.378 17.2872C413.185 17.2872 413.028 17.444 413.028 17.6372C413.028 17.8305 413.185 17.9873 413.378 17.9873C413.571 17.9873 413.728 17.8305 413.728 17.6372C413.728 17.444 413.571 17.2872 413.378 17.2872ZM409.827 18.0384C409.634 18.0384 409.477 18.1952 409.477 18.3884C409.477 18.5817 409.634 18.7386 409.827 18.7386C410.02 18.7386 410.177 18.5817 410.177 18.3884C410.177 18.1952 410.02 18.0384 409.827 18.0384ZM416.041 24.1164C415.848 24.1164 415.691 24.2732 415.691 24.4664C415.691 24.6598 415.848 24.8164 416.041 24.8164C416.234 24.8164 416.391 24.6598 416.391 24.4664C416.391 24.2732 416.234 24.1164 416.041 24.1164ZM416.448 23.3532C416.255 23.3532 416.098 23.51 416.098 23.7032C416.098 23.8965 416.255 24.0534 416.448 24.0534C416.642 24.0534 416.798 23.8965 416.798 23.7032C416.798 23.51 416.642 23.3532 416.448 23.3532ZM411.717 23.2007C411.523 23.2007 411.367 23.3573 411.367 23.5507C411.367 23.7439 411.523 23.9008 411.717 23.9008C411.91 23.9008 412.067 23.7439 412.067 23.5507C412.067 23.3573 411.91 23.2007 411.717 23.2007ZM412.633 23.5821C412.383 23.5821 412.18 23.7845 412.18 24.0341C412.18 24.2837 412.383 24.4862 412.633 24.4862C412.882 24.4862 413.084 24.2837 413.084 24.0341C413.084 23.7845 412.882 23.5821 412.633 23.5821ZM413.303 30.621C413.053 30.621 412.851 30.8235 412.851 31.073C412.851 31.3226 413.053 31.525 413.303 31.525C413.553 31.525 413.755 31.3226 413.755 31.073C413.755 30.8235 413.553 30.621 413.303 30.621ZM417.659 31.0797C417.41 31.0797 417.207 31.2819 417.207 31.5315C417.207 31.7811 417.41 31.9836 417.659 31.9836C417.909 31.9836 418.111 31.7811 418.111 31.5315C418.111 31.2819 417.909 31.0797 417.659 31.0797ZM417.048 39.4864C416.798 39.4864 416.596 39.6888 416.596 39.9383C416.596 40.188 416.798 40.3904 417.048 40.3904C417.297 40.3904 417.5 40.188 417.5 39.9383C417.5 39.6888 417.297 39.4864 417.048 39.4864ZM412.545 37.7291C412.295 37.7291 412.093 37.9316 412.093 38.181C412.093 38.4305 412.295 38.633 412.545 38.633C412.794 38.633 412.997 38.4305 412.997 38.181C412.997 37.9316 412.794 37.7291 412.545 37.7291ZM409.085 43.9347C408.835 43.9347 408.633 44.1373 408.633 44.3867C408.633 44.6363 408.835 44.8386 409.085 44.8386C409.334 44.8386 409.537 44.6363 409.537 44.3867C409.537 44.1373 409.334 43.9347 409.085 43.9347ZM413.658 48.0431C413.409 48.0431 413.206 48.2455 413.206 48.4951C413.206 48.7447 413.409 48.9471 413.658 48.9471C413.908 48.9471 414.11 48.7447 414.11 48.4951C414.11 48.2455 413.908 48.0431 413.658 48.0431ZM403.943 50.4452C403.647 50.4452 403.406 50.6856 403.406 50.9818C403.406 51.2784 403.647 51.5188 403.943 51.5188C404.239 51.5188 404.48 51.2784 404.48 50.9818C404.48 50.6856 404.239 50.4452 403.943 50.4452ZM390.434 4.28437C392.295 3.93397 394.798 5.07915 394.723 5.01138C392.395 2.90651 389.058 2.54432 387.442 4.62598C390.973 5.32389 391.702 7.78309 394.323 5.75425C394.384 5.70693 394.446 5.65698 394.51 5.60442C394.65 5.48906 392.543 4.62349 390.434 4.28437ZM393.491 4.79076C394.135 5.08033 394.821 5.35299 395.395 5.65856C395.121 5.68464 394.688 5.69749 394.355 5.96622C395.079 5.77955 395.835 5.90461 396.575 5.8738C396.615 5.84575 396.602 5.79384 396.516 5.76316C395.599 5.43715 394.409 5.05621 393.491 4.79076ZM393.758 2.44954C394.396 3.79345 396.28 4.85289 396.202 4.83677C393.789 4.33156 392.016 2.38046 392.591 0.391733C394.667 2.31124 396.565 1.63706 396.489 4.23901C396.487 4.29984 396.484 4.36263 396.48 4.42712C396.472 4.56896 394.948 3.63169 393.758 2.44954ZM395.493 4.15656C395.974 4.43132 396.464 4.74055 396.924 4.96406C396.814 4.77804 396.621 4.49686 396.638 4.16141C396.855 4.70765 397.284 5.12975 397.606 5.61399C397.607 5.65213 397.568 5.66747 397.509 5.62723C396.878 5.19621 396.086 4.61667 395.493 4.15656ZM398.343 3.63496C398.697 5.07981 400.329 6.49738 400.256 6.46579C397.994 5.48474 396.651 3.21627 397.615 1.38406C399.261 3.68255 401.257 3.4049 400.658 5.93803C400.643 5.99729 400.628 6.05824 400.611 6.12051C400.574 6.25789 399.27 5.03275 398.343 3.63496ZM402.836 5.25205C402.942 6.96484 404.503 8.90926 404.427 8.85853C402.061 7.28024 401.003 4.42935 402.473 2.54786C403.869 5.49496 406.191 5.58974 404.99 8.34191C404.963 8.40628 404.933 8.47221 404.9 8.53946C404.83 8.68785 403.602 7.0292 402.836 5.25205ZM407.383 8.85971C407.326 10.7592 408.851 13.0617 408.772 12.9979C406.323 11.0177 405.444 7.76644 407.256 5.84064C408.498 9.23213 411.049 9.57177 409.446 12.4855C409.409 12.5534 409.369 12.6231 409.327 12.6941C409.234 12.8505 408.048 10.8969 407.383 8.85971ZM408.362 11.8113C408.749 12.4038 409.126 13.0413 409.518 13.563C409.501 13.2874 409.447 12.8555 409.661 12.484C409.589 13.2313 409.83 13.961 409.915 14.6994C409.894 14.7433 409.84 14.7379 409.796 14.6576C409.33 13.8001 408.767 12.6797 408.362 11.8113ZM411.762 12.7752C411.167 14.5604 411.958 17.1781 411.901 17.0951C410.142 14.5201 410.234 11.1865 412.5 9.87563C412.713 13.4457 415.036 14.4938 412.686 16.801C412.631 16.8549 412.574 16.9095 412.514 16.9648C412.381 17.0869 411.812 14.8967 411.762 12.7752ZM393.334 7.51501C394.706 6.66518 397.046 6.80701 396.966 6.77608C394.47 5.81809 391.706 6.55454 391.062 8.70502C394.082 8.17543 395.416 9.90591 396.876 7.48932C396.91 7.43295 396.944 7.37396 396.979 7.31288C397.054 7.17812 395.114 7.13709 393.334 7.51501ZM395.919 6.97887C396.519 7.01151 397.148 7.01754 397.698 7.08413C397.489 7.18887 397.148 7.33228 396.966 7.64794C397.485 7.27722 398.124 7.14443 398.702 6.89287C398.725 6.8584 398.698 6.8213 398.621 6.82327C397.793 6.84542 396.73 6.90795 395.919 6.97887ZM398.353 9.02973C399.898 8.56398 402.122 9.30698 402.052 9.25638C399.889 7.68464 397.03 7.68058 395.85 9.59065C398.904 9.86121 399.745 11.8783 401.781 9.92204C401.828 9.87616 401.876 9.82818 401.925 9.77797C402.033 9.6676 400.17 9.12568 398.353 9.02973ZM402.79 12.0809C404.396 11.9213 406.435 13.0784 406.377 13.0153C404.556 11.0566 401.751 10.5024 400.226 12.1496C403.171 13.003 403.608 15.1438 405.982 13.6161C406.037 13.5803 406.094 13.5425 406.152 13.5027C406.279 13.415 404.555 12.5246 402.79 12.0809ZM405.747 15.7432C407.391 15.7043 409.377 17.0377 409.322 16.969C407.621 14.8372 404.811 14.0578 403.133 15.6158C406.062 16.7101 406.342 18.9209 408.874 17.5497C408.933 17.5176 408.994 17.4835 409.056 17.4475C409.191 17.3682 407.507 16.3301 405.747 15.7432ZM415.18 18.9106C414.231 20.8174 414.705 23.8759 414.654 23.774C413.089 20.6104 413.718 16.8889 416.465 15.7772C416.14 19.8117 418.578 21.353 415.581 23.568C415.511 23.6199 415.438 23.6719 415.361 23.7246C415.194 23.8404 414.902 21.296 415.18 18.9106ZM408.815 19.8777C410.601 20.2934 412.372 22.2845 412.332 22.1952C411.09 19.4217 408.275 17.7988 406.031 19.0132C408.888 21.009 408.574 23.4725 411.688 22.6973C411.761 22.6792 411.835 22.6593 411.912 22.6376C412.081 22.5898 410.552 21.0009 408.815 19.8777ZM417.805 25.811C416.258 27.6584 415.97 31.1486 415.941 31.0232C415.056 27.1289 416.731 23.2004 420.047 22.7034C418.623 27.0563 420.898 29.3964 417.015 31.0415C416.925 31.0799 416.83 31.1181 416.733 31.1557C416.517 31.2388 416.869 28.3621 417.805 25.811ZM416.464 29.5188C416.385 30.4131 416.26 31.3439 416.241 32.1717C416.441 31.8839 416.725 31.4106 417.23 31.2088C416.572 31.8967 416.241 32.8132 415.745 33.6154C415.69 33.642 415.64 33.5947 415.66 33.4804C415.869 32.2605 416.187 30.7028 416.464 29.5188ZM410.365 25.1655C412.273 26.1537 413.709 28.9267 413.69 28.8137C413.08 25.3047 410.351 22.6483 407.452 23.3793C410.12 26.4713 409.052 29.1789 412.813 29.1978C412.901 29.1983 412.992 29.1972 413.085 29.1946C413.29 29.1891 412.012 26.9428 410.365 25.1655ZM418.599 33.9018C416.403 35.4989 415.136 39.2362 415.139 39.091C415.233 34.5919 418.138 30.7546 421.899 31.1168C419.153 35.4865 421.002 38.6662 416.308 39.4044C416.198 39.4215 416.084 39.4375 415.967 39.4521C415.709 39.4841 416.879 36.4351 418.599 33.9018ZM416.12 37.5892C415.79 38.5451 415.399 39.5288 415.153 40.4288C415.45 40.1685 415.89 39.7288 416.497 39.6461C415.59 40.2185 414.977 41.1297 414.216 41.8715C414.148 41.8854 414.107 41.8203 414.16 41.7006C414.721 40.4239 415.494 38.8076 416.12 37.5892ZM410.665 31.4765C412.369 32.9804 413.129 36.1939 413.138 36.0728C413.415 32.3174 411.298 28.891 408.137 28.8955C410.078 32.7527 408.287 35.2552 412.139 36.2412C412.229 36.2643 412.323 36.2866 412.419 36.3079C412.631 36.355 411.898 33.7228 410.665 31.4765ZM417.401 42.4655C414.538 43.5217 412.026 47.1766 412.073 47.0209C413.55 42.1834 417.863 38.9205 421.821 40.461C417.516 44.3486 418.544 48.3521 413.241 47.7166C413.118 47.7018 412.99 47.6842 412.859 47.6643C412.57 47.6201 414.766 44.6798 417.401 42.4655ZM413.593 45.6963C412.944 46.6291 412.221 47.5737 411.68 48.4719C412.08 48.2811 412.691 47.9398 413.373 48.0359C412.216 48.3779 411.275 49.1763 410.226 49.7465C410.148 49.7404 410.124 49.6575 410.217 49.5442C411.214 48.3348 412.544 46.823 413.593 45.6963ZM409.572 37.6478C410.898 39.8439 410.631 43.5624 410.681 43.435C412.249 39.483 411.128 35.0768 407.72 34.0125C408.508 38.824 405.733 40.9146 409.549 43.2792C409.638 43.3345 409.731 43.3899 409.827 43.4455C410.04 43.5681 410.14 40.4844 409.572 37.6478ZM413.132 51.0047C410.171 50.9468 406.61 53.3606 406.708 53.2365C409.752 49.3886 414.802 47.9658 417.833 50.7564C412.57 52.7467 412.083 56.7267 407.518 54.2782C407.411 54.2209 407.302 54.1601 407.19 54.0956C406.945 53.9537 409.969 52.0738 413.132 51.0047ZM408.55 52.5774C407.849 53.0458 407.108 53.5053 406.438 53.9726C406.308 53.9257 406.179 53.8797 406.048 53.8339C406.911 53.3844 407.792 52.9416 408.55 52.5774ZM406.493 44.2508C407.232 46.9413 405.852 50.7538 405.942 50.6354C408.752 46.9635 408.882 42.0206 405.631 39.8991C405.032 45.1673 401.509 46.5339 404.803 50.1371C404.881 50.2215 404.961 50.3071 405.046 50.3938C405.232 50.5849 406.249 47.3876 406.493 44.2508Z" fill="white"/>
</mask>
<g mask="url(#mask0_1417_269)">
<path d="M421.899 0.391602H352.684V55.0505H421.899V0.391602Z" fill="url(#paint0_linear_1417_269)"/>
</g>
<path fill-rule="evenodd" clip-rule="evenodd" d="M410.51 56.3771C404.108 53.1769 397.199 51.9094 390.011 51.6046C388.109 51.5233 386.332 51.5249 384.43 51.6082C377.274 51.92 370.395 53.1901 364.02 56.3771C364.02 56.3771 361.814 57.3597 362.313 58.9146L363.125 61.6589C362.867 61.7594 356.227 64.3654 352.559 67.0483L357.369 68.793C357.369 68.793 356.224 72.8381 355.957 74.4636C355.957 74.4636 362.561 69.626 370.235 67.7227C370.235 67.7227 371.953 67.2861 371.533 65.8982L370.822 63.0626C373.074 62.4294 375.753 61.7539 377.284 61.6425C383.697 60.6802 390.834 60.6802 397.246 61.6425C398.784 61.7546 401.477 62.4349 403.735 63.0699L403.025 65.8982C402.606 67.2861 404.324 67.7227 404.324 67.7227C411.997 69.626 418.602 74.4636 418.602 74.4636C418.335 72.8381 417.189 68.793 417.189 68.793L422 67.0483C418.258 64.3121 411.425 61.6553 411.425 61.6553L411.409 61.6483L412.217 58.9146C412.716 57.3597 410.51 56.3771 410.51 56.3771ZM387.338 52.5406C395.208 52.6314 402.959 53.727 410.063 57.2786L410.083 57.2883L410.101 57.2963C410.488 57.4733 411.44 58.0698 411.265 58.6153L411.261 58.6262L409.63 64.1366C409.116 63.7755 408.526 63.5046 407.961 63.3002L407.944 63.2938L407.927 63.2883C406.041 62.6823 404.112 62.1214 402.196 61.623C401.324 61.3958 400.446 61.1815 399.564 60.9994C398.844 60.8503 398.092 60.7109 397.358 60.6544C395.078 60.3135 392.686 60.0784 390.389 59.9698C389.366 59.9214 388.335 59.9003 387.311 59.9395L387.265 59.9419L387.219 59.9395C386.195 59.9003 385.165 59.9214 384.142 59.9698C381.845 60.0784 379.453 60.3135 377.173 60.6544C376.439 60.7109 375.686 60.8503 374.967 60.9994C374.085 61.1815 373.207 61.3958 372.335 61.623C370.419 62.1214 368.489 62.6823 366.604 63.2883L366.587 63.2938C365.993 63.5166 365.421 63.7707 364.9 64.1366L363.269 58.6262L363.266 58.6153C363.09 58.0698 364.042 57.4733 364.43 57.2963L364.448 57.2883L364.467 57.2786C371.571 53.727 379.323 52.6314 387.192 52.5406L387.265 52.5397L387.338 52.5406ZM369.259 66.5503L369.998 66.4841L370.611 66.4657C370.279 66.9084 369.352 67.105 368.863 67.2442C367.346 67.6745 365.954 68.0502 364.179 68.7465C362.652 69.4034 361.164 70.1452 359.733 70.9387C358.971 71.3612 358.217 71.8031 357.476 72.2637L357.497 72.1799C357.761 71.142 358.04 70.1031 358.332 69.0725L358.586 68.1769L354.768 66.7923C355.351 66.4394 355.947 66.1072 356.539 65.7904C358.563 64.7086 360.97 63.5325 363.392 62.5652L363.464 62.8803L359.676 64.8828L363.529 63.2412L363.614 63.4736L363.667 63.6417L359.951 65.4754L363.805 63.9605L363.906 64.3393L360.34 66.0887L363.979 64.6428L364.113 65.0046L360.645 66.7638L364.201 65.3478L364.306 65.6983L361 67.4299L364.424 66.0424C364.444 66.1242 364.481 66.2202 364.54 66.3365C364.573 66.4017 361.225 67.9298 361.25 67.9546L364.835 66.6352L364.942 66.6774C365.055 66.7091 365.268 66.7211 365.353 66.7257C365.387 66.7278 364.619 66.9578 363.885 67.3038C362.805 67.8118 361.558 68.5146 361.558 68.5146L364.268 67.4495L366.749 66.6554L367.456 66.6179L364.61 67.6998L361.907 69.1329L364.953 67.8529L369.259 66.5503ZM369.996 63.2275C370.27 63.9917 370.558 65.2958 370.62 65.7099L367.451 65.9816L366.879 66.0139C366.526 66.0485 365.054 66.191 364.988 65.6852C365.382 66.0381 366.023 65.9513 367.464 65.8196C368.294 65.7442 369.096 65.6572 369.92 65.5223L367.666 65.5966L369.982 65.2927L367.627 65.3416L369.961 64.9926L367.541 65.1176L369.906 64.6736L367.442 64.9188L369.834 64.3876L367.356 64.7168L369.81 64.1128L367.258 64.5263L369.707 63.8499L367.111 64.3076L369.643 63.6114C368.059 63.8054 367.066 64.1106 365.738 64.5943C366.665 64.014 368.01 63.6671 369.996 63.2275ZM404.534 63.2275C406.52 63.6671 407.865 64.014 408.792 64.5943C407.464 64.1106 406.471 63.8054 404.887 63.6114L407.42 64.3076L404.823 63.8499L407.272 64.5263L404.721 64.1128L407.175 64.7168L404.696 64.3876L407.089 64.9188L404.624 64.6736L406.988 65.1176L404.57 64.9926L406.903 65.3416L404.548 65.2927L406.864 65.5966L404.61 65.5223C405.434 65.6572 406.237 65.7442 407.067 65.8196C408.507 65.9513 409.149 66.0381 409.542 65.6852C409.477 66.191 408.004 66.0485 407.651 66.0139L407.08 65.9816L403.91 65.7099C403.972 65.2958 404.26 63.9917 404.534 63.2275ZM404.561 66.4841L405.3 66.5503L409.606 67.8529L412.651 69.1329L409.948 67.6998L407.103 66.6179L407.809 66.6554L410.291 67.4495L413 68.5146C413 68.5146 411.753 67.8118 410.674 67.3038C409.939 66.9578 409.171 66.7278 409.205 66.7257C409.291 66.7211 409.504 66.7091 409.616 66.6774L409.724 66.6352L413.308 67.9546C413.333 67.9298 409.986 66.4017 410.019 66.3365C410.078 66.2202 410.114 66.1242 410.135 66.0424L413.558 67.4299L410.252 65.6983L410.357 65.3478L413.913 66.7638L410.446 65.0046L410.579 64.6428L414.219 66.0887L410.653 64.3393L410.754 63.9605L414.608 65.4754L410.891 63.6417L410.945 63.4736L411.03 63.2412L414.882 64.8828L411.095 62.8803L411.167 62.5652C413.588 63.5325 415.996 64.7086 418.019 65.7904C418.611 66.1072 419.208 66.4394 419.791 66.7923L415.973 68.1769L416.227 69.0725C416.519 70.1031 416.797 71.142 417.061 72.1799L417.082 72.2637C416.341 71.8031 415.588 71.3612 414.826 70.9387C413.395 70.1452 411.906 69.4034 410.38 68.7465C408.604 68.0502 407.212 67.6745 405.696 67.2442C405.206 67.105 404.279 66.9084 403.948 66.4657L404.561 66.4841Z" fill="url(#paint1_linear_1417_269)"/>
<path d="M395.154 19.1526L394.288 17.6616H393.644V19.1526H392.797V14.8574H394.516C394.912 14.8574 395.25 14.9965 395.528 15.2747C395.806 15.5528 395.945 15.8883 395.945 16.281C395.945 16.5469 395.87 16.7943 395.718 17.0234C395.567 17.2484 395.366 17.4182 395.117 17.5327L396.068 19.1526H395.154ZM393.644 15.649V16.9191H394.516C394.675 16.9191 394.812 16.8577 394.927 16.735C395.041 16.6082 395.098 16.4569 395.098 16.281C395.098 16.1051 395.041 15.9558 394.927 15.833C394.812 15.7103 394.675 15.649 394.516 15.649H393.644Z" fill="url(#paint2_linear_1417_269)"/>
<path d="M389.654 18.3427H391.464V19.1526H388.807V14.8574H391.434V15.6674H389.654V16.5816H391.28V17.3793H389.654V18.3427Z" fill="url(#paint3_linear_1417_269)"/>
<path d="M385.16 19.1526L383.718 14.8574H384.638L385.688 18.1586L386.731 14.8574H387.657L386.209 19.1526H385.16Z" fill="url(#paint4_linear_1417_269)"/>
<path d="M382.308 18.5942C381.875 19.0237 381.347 19.2385 380.725 19.2385C380.103 19.2385 379.576 19.0237 379.142 18.5942C378.713 18.1606 378.498 17.6308 378.498 17.005C378.498 16.3791 378.713 15.8514 379.142 15.4219C379.576 14.9883 380.103 14.7715 380.725 14.7715C381.347 14.7715 381.875 14.9883 382.308 15.4219C382.742 15.8514 382.959 16.3791 382.959 17.005C382.959 17.6308 382.742 18.1606 382.308 18.5942ZM379.737 18.0174C380.003 18.2792 380.332 18.4101 380.725 18.4101C381.118 18.4101 381.447 18.2792 381.713 18.0174C381.979 17.7515 382.112 17.414 382.112 17.005C382.112 16.5959 381.979 16.2584 381.713 15.9925C381.447 15.7267 381.118 15.5937 380.725 15.5937C380.332 15.5937 380.003 15.7267 379.737 15.9925C379.471 16.2584 379.338 16.5959 379.338 17.005C379.338 17.414 379.471 17.7515 379.737 18.0174Z" fill="url(#paint5_linear_1417_269)"/>
<path d="M369.32 59.9645C369.112 60.3897 368.78 60.6817 368.325 60.8404C367.87 60.9991 367.428 60.9765 367.001 60.7727C366.576 60.5648 366.284 60.2317 366.124 59.7734C365.964 59.3151 365.987 58.8739 366.191 58.4498C366.398 58.0216 366.729 57.7281 367.185 57.5694C367.64 57.4107 368.082 57.4348 368.51 57.6416C368.937 57.8455 369.231 58.1765 369.39 58.6348C369.55 59.0931 369.526 59.5364 369.32 59.9645ZM367.29 60.1984C367.551 60.3223 367.826 60.3341 368.113 60.2338C368.401 60.1336 368.609 59.9537 368.737 59.6941C368.863 59.4315 368.875 59.1505 368.77 58.851C368.666 58.5514 368.482 58.3382 368.22 58.2114C367.957 58.0846 367.682 58.0713 367.395 58.1715C367.107 58.2717 366.9 58.4531 366.773 58.7157C366.646 58.9783 366.635 59.2593 366.739 59.5589C366.844 59.8584 367.027 60.0716 367.29 60.1984Z" fill="url(#paint6_linear_1417_269)"/>
<path d="M372.21 56.8083L370.921 57.1472L371.122 57.9111L372.374 57.5819L372.533 58.1893L371.282 58.5185L371.609 59.761L370.974 59.928L370.126 56.7068L372.05 56.2009L372.21 56.8083Z" fill="url(#paint7_linear_1417_269)"/>
<path d="M376.238 58.0838L377.621 57.8448L377.728 58.4637L375.698 58.8146L375.131 55.5325L377.137 55.1856L377.244 55.8045L375.885 56.0395L376.005 56.7382L377.248 56.5234L377.353 57.1329L376.111 57.3477L376.238 58.0838Z" fill="url(#paint8_linear_1417_269)"/>
<path d="M381.303 58.0131L380.561 58.1L379.792 57.0978L379.275 58.2506L378.538 58.337L379.351 56.5219L378.203 55.0227L378.94 54.9364L379.647 55.8596L380.121 54.798L380.859 54.7116L380.088 56.4308L381.303 58.0131Z" fill="url(#paint9_linear_1417_269)"/>
<path d="M383.667 57.9213C383.167 57.9496 382.744 57.8067 382.399 57.4926C382.054 57.1784 381.868 56.7775 381.84 56.2898C381.812 55.7989 381.952 55.3795 382.26 55.0317C382.567 54.6807 382.971 54.4911 383.472 54.4629C383.772 54.4459 384.054 54.5015 384.315 54.6297C384.579 54.7545 384.79 54.9333 384.946 55.1659L384.399 55.5257C384.308 55.3815 384.184 55.2725 384.028 55.1987C383.871 55.1218 383.698 55.0887 383.508 55.0994C383.184 55.1177 382.929 55.2338 382.741 55.4478C382.556 55.6616 382.473 55.93 382.491 56.253C382.509 56.5729 382.622 56.8286 382.83 57.0202C383.041 57.2117 383.308 57.2982 383.631 57.28C383.821 57.2693 383.989 57.2184 384.137 57.1275C384.287 57.0332 384.398 56.911 384.469 56.7608L385.053 57.0567C384.924 57.3055 384.737 57.5082 384.491 57.6651C384.246 57.8187 383.971 57.9042 383.667 57.9213Z" fill="url(#paint10_linear_1417_269)"/>
<path d="M386.767 57.1385L388.171 57.1443L388.168 57.7723L386.108 57.7638L386.122 54.4331L388.158 54.4415L388.156 55.0696L386.776 55.0639L386.773 55.7729L388.034 55.7781L388.031 56.3966L386.77 56.3914L386.767 57.1385Z" fill="url(#paint11_linear_1417_269)"/>
<path d="M389.913 57.2146L391.181 57.2847L391.147 57.9119L389.222 57.8054L389.406 54.4797L390.062 54.516L389.913 57.2146Z" fill="url(#paint12_linear_1417_269)"/>
<path d="M392.834 57.4326L394.098 57.5646L394.033 58.1893L392.116 57.989L392.462 54.6763L393.115 54.7445L392.834 57.4326Z" fill="url(#paint13_linear_1417_269)"/>
<path d="M395.741 57.7932L397.128 58.0088L397.032 58.6295L394.996 58.313L395.508 55.0217L397.52 55.3346L397.424 55.9552L396.06 55.7432L395.951 56.4438L397.197 56.6375L397.102 57.2487L395.856 57.055L395.741 57.7932Z" fill="url(#paint14_linear_1417_269)"/>
<path d="M400.663 55.9641L401.305 56.1019L400.606 59.3584L400.118 59.2536L399.15 56.9628L398.722 58.954L398.08 58.8161L398.779 55.5596L399.268 55.6644L400.237 57.9506L400.663 55.9641Z" fill="url(#paint15_linear_1417_269)"/>
<path d="M403.302 60.1493C402.82 60.0118 402.468 59.738 402.245 59.3281C402.022 58.9182 401.978 58.4783 402.112 58.0086C402.247 57.5357 402.517 57.1855 402.921 56.9579C403.327 56.7273 403.771 56.6807 404.253 56.8182C404.542 56.9008 404.79 57.0456 404.995 57.2525C405.203 57.4572 405.343 57.6951 405.415 57.9661L404.78 58.1264C404.742 57.9605 404.66 57.8169 404.537 57.6958C404.414 57.5717 404.261 57.4835 404.078 57.4313C403.767 57.3425 403.487 57.3684 403.239 57.5088C402.994 57.65 402.828 57.8763 402.739 58.1874C402.651 58.4955 402.674 58.7741 402.807 59.0233C402.944 59.2734 403.167 59.4428 403.479 59.5315C403.662 59.5838 403.838 59.5911 404.007 59.5536C404.18 59.5138 404.324 59.4347 404.441 59.3161L404.895 59.7872C404.692 59.9799 404.448 60.11 404.165 60.1777C403.883 60.2423 403.595 60.2328 403.302 60.1493Z" fill="url(#paint16_linear_1417_269)"/>
<path d="M406.476 60.4233L407.801 60.8887L407.592 61.4812L405.649 60.7981L406.753 57.6558L408.674 58.331L408.466 58.9235L407.164 58.466L406.929 59.1349L408.119 59.553L407.914 60.1365L406.724 59.7185L406.476 60.4233Z" fill="url(#paint17_linear_1417_269)"/>
<path d="M394.037 42.4968C394.429 42.4968 394.66 42.7974 394.66 43.1785C394.66 43.2375 394.654 43.2965 394.643 43.3609C394.601 43.6132 394.423 43.8225 394.187 43.9406C394.144 43.9621 394.096 43.9728 394.053 43.9728C393.956 43.9728 393.871 43.9191 393.871 43.8494C393.871 43.8225 393.876 43.7957 393.903 43.7689C394.069 43.5649 394.139 43.3126 394.139 43.1248C394.139 42.9638 394.085 42.8457 394.005 42.8457C393.865 42.8457 393.629 43.0657 393.608 43.5381L393.602 43.6239C393.602 44.2036 393.908 44.5739 394.069 45.0248C394.536 44.8262 394.869 44.4075 395.094 44.005C395.143 43.9191 395.234 43.8816 395.304 43.8816C395.357 43.8816 395.395 43.903 395.395 43.946C395.395 43.9621 395.389 43.9835 395.379 44.005C395.046 44.6222 394.735 45.1804 394.155 45.4058V45.6688C394.085 46.4578 393.532 46.7584 392.888 46.7584C392.277 46.7584 391.799 46.2861 391.799 45.7064C391.799 45.5722 391.826 45.4327 391.885 45.2878C392.003 44.9818 392.169 44.8155 392.352 44.7779C392.378 44.7725 392.405 44.7671 392.427 44.7671C392.523 44.7671 392.582 44.8208 392.593 44.896C392.899 45.0516 393.173 45.1214 393.425 45.1375C393.339 44.8155 393.071 44.4398 392.958 44.0265C392.899 44.1392 392.819 44.1875 392.76 44.1875C392.706 44.1875 392.663 44.1499 392.663 44.0855C392.663 44.064 392.668 44.0372 392.684 44.005C392.797 43.7903 392.867 43.6186 392.926 43.4576V43.4361C393.108 42.5881 393.634 42.4968 394.037 42.4968ZM392.518 45.3092C392.518 45.6098 392.706 45.8513 392.947 45.8513C393.178 45.8513 393.35 45.7064 393.414 45.5025C393.157 45.4864 392.862 45.4273 392.518 45.3092Z" fill="url(#paint18_linear_1417_269)"/>
<path d="M390.817 43.3017C390.747 43.2749 390.677 43.2266 390.602 43.1568C390.511 43.0655 390.473 42.9421 390.473 42.8079C390.473 42.5449 390.634 42.2551 390.865 42.2175C390.892 42.2122 390.919 42.2068 390.946 42.2068C391.192 42.2068 391.348 42.4376 391.37 42.6308C391.38 42.7059 391.541 42.7542 391.702 42.8025C392.051 42.867 392.336 43.2212 392.336 43.4788V43.5271C392.277 43.9136 391.482 44.9011 391.482 45.3788C391.482 45.4539 391.504 45.513 391.547 45.5613C391.552 45.5667 391.563 45.5667 391.573 45.5667C391.863 45.5667 392.491 44.3698 392.679 44.0048C392.722 43.9189 392.813 43.876 392.883 43.876C392.937 43.876 392.974 43.8975 392.974 43.9458C392.974 43.9619 392.969 43.9833 392.964 44.0048C392.481 45.0353 391.756 46.3288 391.176 46.3288C390.87 46.3288 390.436 46.1946 390.436 45.7062C390.436 45.6525 390.441 45.6042 390.452 45.5452C390.538 45.0138 391.67 43.5056 391.67 43.2856C391.67 43.2749 391.67 43.2695 391.665 43.2641C391.659 43.2588 391.654 43.2588 391.654 43.2534C391.627 43.2427 391.6 43.2373 391.573 43.2373C391.445 43.2373 391.268 43.3393 391.069 43.35C390.988 43.5915 390.897 43.8116 390.806 44.0048C390.747 44.1336 390.661 44.1873 390.597 44.1873C390.543 44.1873 390.5 44.1497 390.5 44.0853C390.5 44.0638 390.511 44.037 390.527 44.0048C390.666 43.7203 390.747 43.5164 390.817 43.3017Z" fill="url(#paint19_linear_1417_269)"/>
<path d="M387.537 46.3289C387.06 46.2752 386.824 45.9425 386.824 45.4326C386.824 45.0461 386.958 44.5524 387.231 44.0049C387.682 43.0817 388.214 42.6792 388.681 42.6792C388.858 42.6792 389.029 42.7382 389.18 42.8509C389.266 42.91 389.319 42.9744 389.351 43.0495C389.368 42.9959 389.384 42.9637 389.448 42.9368C389.496 42.9207 389.545 42.91 389.593 42.91C389.818 42.91 390.038 43.1032 390.038 43.334C390.038 43.3877 390.028 43.4467 390.001 43.5004C389.802 43.8976 389.292 45.0032 389.292 45.4111C389.292 45.4916 389.314 45.5453 389.362 45.5614H389.394C389.405 45.5668 389.411 45.5668 389.421 45.5668C389.716 45.5668 390.339 44.3699 390.527 44.0049C390.57 43.919 390.661 43.8761 390.731 43.8761C390.785 43.8761 390.827 43.8976 390.827 43.9459C390.827 43.962 390.822 43.9834 390.811 44.0049C390.328 45.0354 389.604 46.3289 389.024 46.3289C388.724 46.3289 388.332 46.1303 388.332 45.7117V45.6956C388.096 46.0498 387.843 46.2967 387.596 46.3289H387.537ZM388.986 43.2052C388.729 43.2052 388.53 43.3769 388.053 44.1927C387.859 44.5309 387.623 45.2179 387.623 45.5292C387.623 45.6204 387.645 45.6795 387.688 45.6902C387.865 45.6902 388.423 44.767 388.847 44.0049C388.981 43.7634 389.067 43.5004 389.067 43.3447C389.067 43.2589 389.04 43.2052 388.986 43.2052Z" fill="url(#paint20_linear_1417_269)"/>
<path d="M386.265 42.8025C386.652 42.8025 386.856 43.1192 386.856 43.5163C386.856 44.1819 386.287 45.0835 385.079 45.0997C385.074 45.1533 385.068 45.2016 385.068 45.2446C385.068 45.5237 385.235 45.69 385.466 45.69H385.471C386.008 45.69 386.689 44.8528 387.231 44.0047C387.29 43.9189 387.382 43.8759 387.451 43.8759C387.5 43.8759 387.532 43.8974 387.532 43.9457C387.532 43.9618 387.527 43.9833 387.516 44.0047C387.033 45.0299 386.314 46.3234 385.176 46.3234C384.714 46.3234 384.253 45.996 384.253 45.3036C384.253 45.0138 384.333 44.6595 384.526 44.2355C384.564 44.155 384.601 44.0799 384.644 44.0047C385.085 43.1943 385.696 42.8025 386.265 42.8025ZM386.233 43.1514C386.008 43.1514 385.519 43.9296 385.31 44.3536C385.229 44.52 385.17 44.6703 385.122 44.8152C385.723 44.7723 386.303 43.6129 386.303 43.2533C386.303 43.1889 386.281 43.1514 386.238 43.1514H386.233Z" fill="url(#paint21_linear_1417_269)"/>
<path d="M384.414 41.1066C384.516 40.892 384.446 40.7954 384.58 40.7417C384.628 40.7256 384.677 40.7148 384.725 40.7148C384.972 40.7148 385.235 40.9188 385.235 41.155C385.235 41.2033 385.224 41.2516 385.197 41.2999C385.149 41.4072 383.313 45.6151 382.997 46.3558C382.986 46.388 382.97 46.4202 382.954 46.4524C383.12 46.5651 383.19 46.7207 383.222 46.8925C383.227 46.914 383.227 46.9354 383.227 46.9569C383.227 47.1233 383.12 47.3272 382.927 47.3916C382.889 47.4024 382.857 47.4077 382.825 47.4077C382.734 47.4077 382.68 47.3487 382.68 47.2736V47.2414C382.68 47.236 382.685 47.2253 382.685 47.2092C382.685 47.1716 382.68 47.1179 382.659 47.0589C381.955 48.3094 381.215 48.5509 380.34 48.5509C379.75 48.5509 379.395 48.186 379.395 47.7459C379.395 47.6654 379.406 47.5849 379.433 47.499C379.755 46.4255 380.893 46.2592 382.009 46.2592H382.133C382.149 46.227 382.17 46.1947 382.186 46.1625C382.363 45.8459 383.281 44.1713 383.909 42.8671C383.775 43.0925 383.619 43.3448 383.426 43.6453C382.487 45.0837 381.891 45.9318 381.188 45.9318C380.828 45.9318 380.437 45.7117 380.437 45.2126C380.437 45.1374 380.442 45.0569 380.463 44.9657C380.522 44.6919 380.726 44.1982 380.984 43.5648C381.349 42.6846 381.59 41.9493 381.59 41.6756C381.59 41.6004 381.569 41.5575 381.531 41.5575C381.344 41.5575 380.458 42.2069 380.152 43.5219C380.125 43.6292 380.115 43.7097 380.115 43.7795C380.115 43.8708 380.136 43.9298 380.174 43.9674C380.206 43.9996 380.222 44.0371 380.222 44.0747C380.222 44.1498 380.157 44.2196 380.061 44.2357C380.045 44.2357 380.029 44.2411 380.013 44.2411C379.803 44.2411 379.363 44.0908 379.363 43.6131C379.363 43.5326 379.374 43.4467 379.401 43.3501C379.846 41.7507 380.979 41.2194 381.692 41.2194C381.907 41.2194 382.17 41.4018 382.224 41.7561C382.229 41.7829 382.229 41.8151 382.229 41.8473C382.229 42.1855 382.02 42.8725 381.773 43.5487C381.429 44.488 381.29 44.9281 381.29 45.1267C381.29 45.2287 381.327 45.2609 381.397 45.2609C381.811 45.2609 383.227 43.5541 384.414 41.1066ZM381.864 46.5866C381.542 46.5866 380.839 46.769 380.447 47.1072C380.19 47.3326 380.082 47.6224 380.082 47.7942C380.082 47.88 380.109 47.9391 380.163 47.9391C380.689 47.9391 381.263 47.6171 381.929 46.5919C381.907 46.5866 381.886 46.5866 381.864 46.5866Z" fill="url(#paint22_linear_1417_269)"/>
<path fill-rule="evenodd" clip-rule="evenodd" d="M387.154 27.6984C387.154 29.032 386.754 30.161 385.953 31.0845C385.091 32.0695 384.004 32.5621 382.69 32.5621H378.473C377.283 32.5621 376.421 32.6854 375.887 32.9314C375.128 33.3009 374.666 33.9783 374.502 34.9632H386.415V38.6572H370.438L370.407 36.7794C370.325 31.5051 373.014 28.8681 378.473 28.8681H382.69C383.224 28.8681 383.491 28.4678 383.491 27.6675C383.491 26.8876 383.224 26.4978 382.69 26.4978H371.177V22.8035H382.69C384.004 22.8035 385.091 23.2961 385.953 24.2815C386.754 25.2253 387.154 26.3645 387.154 27.6984ZM404.177 33.6395C404.177 35.0758 403.675 36.2715 402.669 37.2257C401.663 38.1802 400.442 38.6572 399.006 38.6572H393.865C392.428 38.6572 391.207 38.1802 390.201 37.2257C389.196 36.2715 388.693 35.0758 388.693 33.6395H392.387C392.387 34.5219 392.88 34.9632 393.865 34.9632H399.006C399.991 34.9632 400.483 34.5219 400.483 33.6395V32.87C400.483 32.0081 399.991 31.5771 399.006 31.5771H388.693V22.8035H403.284V26.4978H392.387V27.8831H399.006C400.442 27.8831 401.663 28.3551 402.669 29.2989C403.675 30.2432 404.177 31.4331 404.177 32.87V33.6395Z" fill="url(#paint23_linear_1417_269)"/>
<defs>
<linearGradient id="paint0_linear_1417_269" x1="416.506" y1="4.65061" x2="367.878" y2="66.2301" gradientUnits="userSpaceOnUse">
<stop stop-color="#F8EC41"/>
<stop offset="0.2242" stop-color="#D47B00"/>
<stop offset="0.2909" stop-color="#FFC112"/>
<stop offset="0.3375" stop-color="#EAA516"/>
<stop offset="0.3818" stop-color="#D4871B"/>
<stop offset="0.4223" stop-color="#E8A01D"/>
<stop offset="0.4677" stop-color="#F9B61E"/>
<stop offset="0.497" stop-color="#FFBE1F"/>
<stop offset="0.6485" stop-color="#FFF79E"/>
<stop offset="0.6692" stop-color="#FFF18F"/>
<stop offset="0.7094" stop-color="#FFE167"/>
<stop offset="0.7644" stop-color="#FFC826"/>
<stop offset="0.7939" stop-color="#FFB901"/>
<stop offset="0.8196" stop-color="#FED11D"/>
<stop offset="0.8454" stop-color="#FEE331"/>
<stop offset="0.8713" stop-color="#FDED3D"/>
<stop offset="0.897" stop-color="#FDF141"/>
<stop offset="1" stop-color="#FDF79E"/>
</linearGradient>
<linearGradient id="paint1_linear_1417_269" x1="416.589" y1="53.3305" x2="404.112" y2="91.1353" gradientUnits="userSpaceOnUse">
<stop stop-color="#F8EC41"/>
<stop offset="0.2242" stop-color="#D47B00"/>
<stop offset="0.2909" stop-color="#FFC112"/>
<stop offset="0.3375" stop-color="#EAA516"/>
<stop offset="0.3818" stop-color="#D4871B"/>
<stop offset="0.4223" stop-color="#E8A01D"/>
<stop offset="0.4677" stop-color="#F9B61E"/>
<stop offset="0.497" stop-color="#FFBE1F"/>
<stop offset="0.6485" stop-color="#FFF79E"/>
<stop offset="0.6692" stop-color="#FFF18F"/>
<stop offset="0.7094" stop-color="#FFE167"/>
<stop offset="0.7644" stop-color="#FFC826"/>
<stop offset="0.7939" stop-color="#FFB901"/>
<stop offset="0.8196" stop-color="#FED11D"/>
<stop offset="0.8454" stop-color="#FEE331"/>
<stop offset="0.8713" stop-color="#FDED3D"/>
<stop offset="0.897" stop-color="#FDF141"/>
<stop offset="1" stop-color="#FDF79E"/>
</linearGradient>
<linearGradient id="paint2_linear_1417_269" x1="395.813" y1="15.1921" x2="392.026" y2="18.0755" gradientUnits="userSpaceOnUse">
<stop stop-color="#F8EC41"/>
<stop offset="0.2242" stop-color="#D47B00"/>
<stop offset="0.3375" stop-color="#EAA516"/>
<stop offset="0.497" stop-color="#FFBE1F"/>
<stop offset="0.6692" stop-color="#FFF18F"/>
<stop offset="0.7939" stop-color="#FFB901"/>
<stop offset="0.897" stop-color="#FDF141"/>
<stop offset="1" stop-color="#FDF79E"/>
</linearGradient>
<linearGradient id="paint3_linear_1417_269" x1="391.257" y1="15.1921" x2="387.742" y2="17.3664" gradientUnits="userSpaceOnUse">
<stop stop-color="#F8EC41"/>
<stop offset="0.2242" stop-color="#D47B00"/>
<stop offset="0.3375" stop-color="#EAA516"/>
<stop offset="0.497" stop-color="#FFBE1F"/>
<stop offset="0.6692" stop-color="#FFF18F"/>
<stop offset="0.7939" stop-color="#FFB901"/>
<stop offset="0.897" stop-color="#FDF141"/>
<stop offset="1" stop-color="#FDF79E"/>
</linearGradient>
<linearGradient id="paint4_linear_1417_269" x1="387.35" y1="15.1921" x2="383.437" y2="18.7815" gradientUnits="userSpaceOnUse">
<stop stop-color="#F8EC41"/>
<stop offset="0.2242" stop-color="#D47B00"/>
<stop offset="0.3375" stop-color="#EAA516"/>
<stop offset="0.497" stop-color="#FFBE1F"/>
<stop offset="0.6692" stop-color="#FFF18F"/>
<stop offset="0.7939" stop-color="#FFB901"/>
<stop offset="0.897" stop-color="#FDF141"/>
<stop offset="1" stop-color="#FDF79E"/>
</linearGradient>
<linearGradient id="paint5_linear_1417_269" x1="382.611" y1="15.1196" x2="378.526" y2="19.1994" gradientUnits="userSpaceOnUse">
<stop stop-color="#F8EC41"/>
<stop offset="0.2242" stop-color="#D47B00"/>
<stop offset="0.3375" stop-color="#EAA516"/>
<stop offset="0.497" stop-color="#FFBE1F"/>
<stop offset="0.6692" stop-color="#FFF18F"/>
<stop offset="0.7939" stop-color="#FFB901"/>
<stop offset="0.897" stop-color="#FDF141"/>
<stop offset="1" stop-color="#FDF79E"/>
</linearGradient>
<linearGradient id="paint6_linear_1417_269" x1="368.604" y1="56.7169" x2="365.007" y2="61.3239" gradientUnits="userSpaceOnUse">
<stop stop-color="#F8EC41"/>
<stop offset="0.2242" stop-color="#D47B00"/>
<stop offset="0.3375" stop-color="#EAA516"/>
<stop offset="0.497" stop-color="#FFBE1F"/>
<stop offset="0.6692" stop-color="#FFF18F"/>
<stop offset="0.7939" stop-color="#FFB901"/>
<stop offset="0.897" stop-color="#FDF141"/>
<stop offset="1" stop-color="#FDF79E"/>
</linearGradient>
<linearGradient id="paint7_linear_1417_269" x1="371.945" y1="55.8102" x2="368.621" y2="58.3726" gradientUnits="userSpaceOnUse">
<stop stop-color="#F8EC41"/>
<stop offset="0.2242" stop-color="#D47B00"/>
<stop offset="0.3375" stop-color="#EAA516"/>
<stop offset="0.497" stop-color="#FFBE1F"/>
<stop offset="0.6692" stop-color="#FFF18F"/>
<stop offset="0.7939" stop-color="#FFB901"/>
<stop offset="0.897" stop-color="#FDF141"/>
<stop offset="1" stop-color="#FDF79E"/>
</linearGradient>
<linearGradient id="paint8_linear_1417_269" x1="377.139" y1="54.7749" x2="373.496" y2="57.2108" gradientUnits="userSpaceOnUse">
<stop stop-color="#F8EC41"/>
<stop offset="0.2242" stop-color="#D47B00"/>
<stop offset="0.3375" stop-color="#EAA516"/>
<stop offset="0.497" stop-color="#FFBE1F"/>
<stop offset="0.6692" stop-color="#FFF18F"/>
<stop offset="0.7939" stop-color="#FFB901"/>
<stop offset="0.897" stop-color="#FDF141"/>
<stop offset="1" stop-color="#FDF79E"/>
</linearGradient>
<linearGradient id="paint9_linear_1417_269" x1="380.803" y1="54.311" x2="376.72" y2="57.0394" gradientUnits="userSpaceOnUse">
<stop stop-color="#F8EC41"/>
<stop offset="0.2242" stop-color="#D47B00"/>
<stop offset="0.3375" stop-color="#EAA516"/>
<stop offset="0.497" stop-color="#FFBE1F"/>
<stop offset="0.6692" stop-color="#FFF18F"/>
<stop offset="0.7939" stop-color="#FFB901"/>
<stop offset="0.897" stop-color="#FDF141"/>
<stop offset="1" stop-color="#FDF79E"/>
</linearGradient>
<linearGradient id="paint10_linear_1417_269" x1="384.825" y1="54.0481" x2="380.233" y2="57.1683" gradientUnits="userSpaceOnUse">
<stop stop-color="#F8EC41"/>
<stop offset="0.2242" stop-color="#D47B00"/>
<stop offset="0.3375" stop-color="#EAA516"/>
<stop offset="0.497" stop-color="#FFBE1F"/>
<stop offset="0.6692" stop-color="#FFF18F"/>
<stop offset="0.7939" stop-color="#FFB901"/>
<stop offset="0.897" stop-color="#FDF141"/>
<stop offset="1" stop-color="#FDF79E"/>
</linearGradient>
<linearGradient id="paint11_linear_1417_269" x1="388.231" y1="54.0374" x2="384.22" y2="55.8007" gradientUnits="userSpaceOnUse">
<stop stop-color="#F8EC41"/>
<stop offset="0.2242" stop-color="#D47B00"/>
<stop offset="0.3375" stop-color="#EAA516"/>
<stop offset="0.497" stop-color="#FFBE1F"/>
<stop offset="0.6692" stop-color="#FFF18F"/>
<stop offset="0.7939" stop-color="#FFB901"/>
<stop offset="0.897" stop-color="#FDF141"/>
<stop offset="1" stop-color="#FDF79E"/>
</linearGradient>
<linearGradient id="paint12_linear_1417_269" x1="391.292" y1="54.1791" x2="387.495" y2="55.4596" gradientUnits="userSpaceOnUse">
<stop stop-color="#F8EC41"/>
<stop offset="0.2242" stop-color="#D47B00"/>
<stop offset="0.3375" stop-color="#EAA516"/>
<stop offset="0.497" stop-color="#FFBE1F"/>
<stop offset="0.6692" stop-color="#FFF18F"/>
<stop offset="0.7939" stop-color="#FFB901"/>
<stop offset="0.897" stop-color="#FDF141"/>
<stop offset="1" stop-color="#FDF79E"/>
</linearGradient>
<linearGradient id="paint13_linear_1417_269" x1="394.361" y1="54.4681" x2="390.505" y2="55.5616" gradientUnits="userSpaceOnUse">
<stop stop-color="#F8EC41"/>
<stop offset="0.2242" stop-color="#D47B00"/>
<stop offset="0.3375" stop-color="#EAA516"/>
<stop offset="0.497" stop-color="#FFBE1F"/>
<stop offset="0.6692" stop-color="#FFF18F"/>
<stop offset="0.7939" stop-color="#FFB901"/>
<stop offset="0.897" stop-color="#FDF141"/>
<stop offset="1" stop-color="#FDF79E"/>
</linearGradient>
<linearGradient id="paint14_linear_1417_269" x1="397.653" y1="54.946" x2="393.423" y2="56.0895" gradientUnits="userSpaceOnUse">
<stop stop-color="#F8EC41"/>
<stop offset="0.2242" stop-color="#D47B00"/>
<stop offset="0.3375" stop-color="#EAA516"/>
<stop offset="0.497" stop-color="#FFBE1F"/>
<stop offset="0.6692" stop-color="#FFF18F"/>
<stop offset="0.7939" stop-color="#FFB901"/>
<stop offset="0.897" stop-color="#FDF141"/>
<stop offset="1" stop-color="#FDF79E"/>
</linearGradient>
<linearGradient id="paint15_linear_1417_269" x1="401.516" y1="55.7335" x2="396.503" y2="57.2603" gradientUnits="userSpaceOnUse">
<stop stop-color="#F8EC41"/>
<stop offset="0.2242" stop-color="#D47B00"/>
<stop offset="0.3375" stop-color="#EAA516"/>
<stop offset="0.497" stop-color="#FFBE1F"/>
<stop offset="0.6692" stop-color="#FFF18F"/>
<stop offset="0.7939" stop-color="#FFB901"/>
<stop offset="0.897" stop-color="#FDF141"/>
<stop offset="1" stop-color="#FDF79E"/>
</linearGradient>
<linearGradient id="paint16_linear_1417_269" x1="405.667" y1="56.8704" x2="400.306" y2="58.3112" gradientUnits="userSpaceOnUse">
<stop stop-color="#F8EC41"/>
<stop offset="0.2242" stop-color="#D47B00"/>
<stop offset="0.3375" stop-color="#EAA516"/>
<stop offset="0.497" stop-color="#FFBE1F"/>
<stop offset="0.6692" stop-color="#FFF18F"/>
<stop offset="0.7939" stop-color="#FFB901"/>
<stop offset="0.897" stop-color="#FDF141"/>
<stop offset="1" stop-color="#FDF79E"/>
</linearGradient>
<linearGradient id="paint17_linear_1417_269" x1="408.876" y1="57.9732" x2="404.508" y2="58.3247" gradientUnits="userSpaceOnUse">
<stop stop-color="#F8EC41"/>
<stop offset="0.2242" stop-color="#D47B00"/>
<stop offset="0.3375" stop-color="#EAA516"/>
<stop offset="0.497" stop-color="#FFBE1F"/>
<stop offset="0.6692" stop-color="#FFF18F"/>
<stop offset="0.7939" stop-color="#FFB901"/>
<stop offset="0.897" stop-color="#FDF141"/>
<stop offset="1" stop-color="#FDF79E"/>
</linearGradient>
<linearGradient id="paint18_linear_1417_269" x1="395.115" y1="42.8289" x2="391.273" y2="46.0709" gradientUnits="userSpaceOnUse">
<stop stop-color="#F8EC41"/>
<stop offset="0.2242" stop-color="#D47B00"/>
<stop offset="0.3375" stop-color="#EAA516"/>
<stop offset="0.497" stop-color="#FFBE1F"/>
<stop offset="0.6692" stop-color="#FFF18F"/>
<stop offset="0.7939" stop-color="#FFB901"/>
<stop offset="0.897" stop-color="#FDF141"/>
<stop offset="1" stop-color="#FDF79E"/>
</linearGradient>
<linearGradient id="paint19_linear_1417_269" x1="392.777" y1="42.528" x2="389.41" y2="44.6015" gradientUnits="userSpaceOnUse">
<stop stop-color="#F8EC41"/>
<stop offset="0.2242" stop-color="#D47B00"/>
<stop offset="0.3375" stop-color="#EAA516"/>
<stop offset="0.497" stop-color="#FFBE1F"/>
<stop offset="0.6692" stop-color="#FFF18F"/>
<stop offset="0.7939" stop-color="#FFB901"/>
<stop offset="0.897" stop-color="#FDF141"/>
<stop offset="1" stop-color="#FDF79E"/>
</linearGradient>
<linearGradient id="paint20_linear_1417_269" x1="390.515" y1="42.9636" x2="387.192" y2="46.6099" gradientUnits="userSpaceOnUse">
<stop stop-color="#F8EC41"/>
<stop offset="0.2242" stop-color="#D47B00"/>
<stop offset="0.3375" stop-color="#EAA516"/>
<stop offset="0.497" stop-color="#FFBE1F"/>
<stop offset="0.6692" stop-color="#FFF18F"/>
<stop offset="0.7939" stop-color="#FFB901"/>
<stop offset="0.897" stop-color="#FDF141"/>
<stop offset="1" stop-color="#FDF79E"/>
</linearGradient>
<linearGradient id="paint21_linear_1417_269" x1="387.276" y1="43.0768" x2="384.064" y2="46.0686" gradientUnits="userSpaceOnUse">
<stop stop-color="#F8EC41"/>
<stop offset="0.2242" stop-color="#D47B00"/>
<stop offset="0.3375" stop-color="#EAA516"/>
<stop offset="0.497" stop-color="#FFBE1F"/>
<stop offset="0.6692" stop-color="#FFF18F"/>
<stop offset="0.7939" stop-color="#FFB901"/>
<stop offset="0.897" stop-color="#FDF141"/>
<stop offset="1" stop-color="#FDF79E"/>
</linearGradient>
<linearGradient id="paint22_linear_1417_269" x1="384.777" y1="41.3254" x2="377.899" y2="46.4795" gradientUnits="userSpaceOnUse">
<stop stop-color="#F8EC41"/>
<stop offset="0.2242" stop-color="#D47B00"/>
<stop offset="0.3375" stop-color="#EAA516"/>
<stop offset="0.497" stop-color="#FFBE1F"/>
<stop offset="0.6692" stop-color="#FFF18F"/>
<stop offset="0.7939" stop-color="#FFB901"/>
<stop offset="0.897" stop-color="#FDF141"/>
<stop offset="1" stop-color="#FDF79E"/>
</linearGradient>
<linearGradient id="paint23_linear_1417_269" x1="401.546" y1="24.0388" x2="390.391" y2="47.8015" gradientUnits="userSpaceOnUse">
<stop stop-color="#F8EC41"/>
<stop offset="0.2242" stop-color="#D47B00"/>
<stop offset="0.2909" stop-color="#FFC112"/>
<stop offset="0.3375" stop-color="#EAA516"/>
<stop offset="0.3818" stop-color="#D4871B"/>
<stop offset="0.4223" stop-color="#E8A01D"/>
<stop offset="0.4677" stop-color="#F9B61E"/>
<stop offset="0.497" stop-color="#FFBE1F"/>
<stop offset="0.6485" stop-color="#FFF79E"/>
<stop offset="0.6692" stop-color="#FFF18F"/>
<stop offset="0.7094" stop-color="#FFE167"/>
<stop offset="0.7644" stop-color="#FFC826"/>
<stop offset="0.7939" stop-color="#FFB901"/>
<stop offset="0.8196" stop-color="#FED11D"/>
<stop offset="0.8454" stop-color="#FEE331"/>
<stop offset="0.8713" stop-color="#FDED3D"/>
<stop offset="0.897" stop-color="#FDF141"/>
<stop offset="1" stop-color="#FDF79E"/>
</linearGradient>
</defs>
</svg>
