<?xml version="1.0" encoding="UTF-8"?>
<svg id="Layer_2" data-name="Layer 2" xmlns="http://www.w3.org/2000/svg" viewBox="0 0 781.3 357.05">
  <defs>
    <style>
      .cls-1 {
        fill: #00fd88;
      }

      .cls-2 {
        fill: #fff;
      }
    </style>
  </defs>
  <g id="White_Artboard" data-name="White Artboard">
    <g>
      <g>
        <path class="cls-2" d="M129.35,357.05H0V0h16.79v340.26h112.56c24.67,0,48.81-6.63,67.98-18.66,28.33-17.79,44.58-45.73,44.58-76.66s-16.25-58.87-44.58-76.66c-19.16-12.04-43.31-18.66-67.98-18.66h-17.39v-16.79h17.39c27.79,0,55.1,7.54,76.91,21.23,33.33,20.93,52.44,54.06,52.44,90.89s-19.11,69.96-52.44,90.89c-21.81,13.69-49.12,21.24-76.91,21.24Z"/>
        <path class="cls-2" d="M129.35,319.73H37.32V0h16.79v302.94h75.24c17.74,0,34.83-4.6,48.13-12.95,17.23-10.82,27.1-27.24,27.1-45.06s-9.88-34.24-27.11-45.06c-13.3-8.35-30.39-12.95-48.13-12.95h-17.39v-16.79h17.39c20.86,0,41.12,5.51,57.06,15.52,22.22,13.96,34.97,35.56,34.97,59.28s-12.75,45.33-34.97,59.28c-15.94,10.01-36.2,15.52-57.06,15.52Z"/>
        <path class="cls-2" d="M129.35,282.42h-54.71V0h16.79v265.62h37.92c22.34,0,37.92-10.9,37.92-20.69s-15.57-20.69-37.92-20.69h-17.39v-16.79h17.39c30.68,0,54.71,16.46,54.71,37.48s-24.03,37.48-54.71,37.48Z"/>
        <g>
          <path class="cls-1" d="M177.48,67.06c17.23,10.82,27.11,27.24,27.11,45.06,0,5.56-.96,10.98-2.81,16.13,5.16,2.44,10.14,5.15,14.91,8.11,3.08-7.65,4.69-15.81,4.69-24.25,0-23.72-12.75-45.32-34.97-59.28-15.94-10.01-36.2-15.52-57.06-15.52h-17.39v16.79h17.39c17.74,0,34.83,4.6,48.13,12.95Z"/>
          <path class="cls-1" d="M197.33,35.46c28.33,17.79,44.58,45.74,44.58,76.66,0,12.9-2.84,25.28-8.19,36.62,4.55,3.84,8.79,7.91,12.7,12.19,8.01-14.85,12.28-31.41,12.28-48.81,0-36.83-19.11-69.95-52.44-90.89C184.45,7.54,157.14,0,129.35,0h-17.39v16.79h17.39c24.67,0,48.81,6.63,67.98,18.66Z"/>
          <path class="cls-1" d="M167.27,112.12c0,1.42-.3,2.82-.86,4.18,5.52,1.2,10.95,2.67,16.25,4.39.9-2.74,1.39-5.61,1.39-8.57,0-21.02-24.03-37.48-54.71-37.48h-17.39v16.79h17.39c20.2,0,37.92,9.67,37.92,20.69Z"/>
        </g>
      </g>
      <g>
        <path class="cls-2" d="M336.86,37.63c11.72,0,20.36,6.95,20.36,18.47v3.38c0,7.15-3.67,11.72-7.55,13.51,5.06,1.99,9.24,7.05,9.24,15.49v3.97c0,12.31-9.04,19.46-22.35,19.46h-20.66c-1.89,0-2.98-1.09-2.98-2.98V40.61c0-1.99,1.09-2.98,2.98-2.98h20.95ZM324.75,68.71h10.13c5.86,0,10.33-2.58,10.33-9.14v-1.79c0-6.46-4.47-9.33-10.43-9.33h-10.03v20.26ZM324.75,101.09h10.43c6.95,0,11.72-3.18,11.72-9.93v-2.38c0-6.75-4.47-9.93-11.52-9.93h-10.63v22.25Z"/>
        <path class="cls-2" d="M381.26,43.69c0,3.68-2.98,6.46-6.55,6.46s-6.46-2.78-6.46-6.46,2.98-6.55,6.46-6.55,6.55,2.98,6.55,6.55ZM380.27,108.94c0,1.89-.99,2.98-2.98,2.98h-5.16c-1.89,0-2.98-1.09-2.98-2.98v-44.99c0-1.89,1.09-2.98,2.98-2.98h5.16c1.89,0,2.98.99,2.98,2.98v44.99Z"/>
        <path class="cls-2" d="M430.82,67.32c0,1.99-1.09,2.98-2.98,2.98h-2.28c1.19,2.19,1.89,4.47,1.89,6.65v3.97c0,10.13-7.15,16.88-18.17,16.88-2.19,0-4.17-.2-6.06-.7-.5.89-.79,1.89-.79,3.08,0,2.68,1.89,3.97,6.26,3.97h2.78c9.63,0,17.68,4.97,17.68,14.6v3.18c0,9.43-7.85,15.19-19.66,15.19s-19.76-5.76-19.76-15.19v-2.28c0-4.67,2.38-8.44,5.76-10.83-1.99-1.99-3.28-4.57-3.28-7.65,0-3.58,1.19-6.36,2.88-8.44-3.08-2.88-4.77-6.95-4.77-11.82v-3.97c0-10.23,7.45-16.88,18.27-16.88,1.99,0,3.97.3,5.66.89h13.61c1.89,0,2.98,1.09,2.98,2.98v3.38ZM407.38,113.21c-3.58.3-6.56,2.28-6.56,6.36v1.89c0,4.07,3.57,6.46,8.64,6.46s8.54-2.38,8.54-6.46v-1.99c0-4.07-3.58-6.26-8.04-6.26h-2.58ZM416.32,77.35c0-4.97-2.48-8.04-7.45-8.04s-7.45,3.08-7.45,8.04v3.18c0,4.97,2.48,8.05,7.45,8.05s7.45-3.08,7.45-8.05v-3.18Z"/>
        <path class="cls-2" d="M479.88,37.63c11.72,0,20.36,6.95,20.36,18.47v3.38c0,7.15-3.67,11.72-7.55,13.51,5.06,1.99,9.24,7.05,9.24,15.49v3.97c0,12.31-9.04,19.46-22.34,19.46h-20.66c-1.89,0-2.98-1.09-2.98-2.98V40.61c0-1.99,1.09-2.98,2.98-2.98h20.95ZM467.76,68.71h10.13c5.86,0,10.33-2.58,10.33-9.14v-1.79c0-6.46-4.47-9.33-10.43-9.33h-10.03v20.26ZM467.76,101.09h10.43c6.95,0,11.72-3.18,11.72-9.93v-2.38c0-6.75-4.47-9.93-11.52-9.93h-10.63v22.25Z"/>
        <path class="cls-2" d="M535.5,63.55v4.87c0,1.99-.3,2.98-.79,2.98h-.89c-4.87,0-10.33,4.97-10.33,11.92v25.62c0,1.99-.99,2.98-2.98,2.98h-5.16c-1.89,0-2.98-1.09-2.98-2.98v-44.99c0-1.89,1.09-2.98,2.98-2.98h4.57c1.89,0,2.98.99,2.98,2.98v3.08c1.59-3.08,6.06-6.46,10.83-6.46,0,0,1.79,1.09,1.79,2.98Z"/>
        <path class="cls-2" d="M580.39,79.44v14c0,11.82-7.75,19.46-19.66,19.46s-19.66-7.65-19.66-19.46v-14c0-11.82,7.75-19.37,19.66-19.37s19.66,7.55,19.66,19.37ZM552.28,79.94v13.11c0,6.26,3.18,10.23,8.54,10.23s8.44-3.97,8.44-10.23v-13.11c0-6.16-3.08-10.23-8.44-10.23s-8.54,4.07-8.54,10.23Z"/>
        <path class="cls-2" d="M604.42,95.13c0,5.56,1.49,7.65,5.26,7.65.5,0,.89,0,1.39-.1,2.09-.2,3.18.5,3.18,2.48v3.77c0,1.79-.79,2.98-2.48,3.38-1.39.3-3.08.5-5.06.5-8.24,0-13.51-4.37-13.41-14.3l.1-28.21h-4.27c-1.89,0-2.98-1.09-2.98-2.98v-3.38c0-1.99,1.09-2.98,2.98-2.98h4.27l.1-14.3c0-1.99.99-2.98,2.98-2.98h5.26c1.89,0,2.98,1.09,2.98,2.98l-.1,14.3h6.75c1.89,0,2.98.99,2.98,2.98v3.38c0,1.89-.99,2.98-2.98,2.98h-6.85l-.1,24.83Z"/>
        <path class="cls-2" d="M633.62,65.73c1.49-2.68,5.06-5.66,11.32-5.66,9.43,0,15.1,6.45,15.1,17.78v31.08c0,1.89-.99,2.98-2.98,2.98h-5.26c-1.89,0-2.98-1.09-2.98-2.98v-28.9c0-5.56-2.38-9.24-7.35-9.24-4.57,0-7.85,3.87-7.85,9.33v28.8c0,1.89-.99,2.98-2.98,2.98h-5.16c-1.89,0-2.98-1.09-2.98-2.98V38.92c0-1.99,1.09-2.98,2.98-2.98h5.16c1.89,0,2.98.99,2.98,2.98v26.81Z"/>
        <path class="cls-2" d="M680.5,94.04c0,5.66,2.88,9.24,7.75,9.24,4.17,0,6.65-1.79,7.45-5.16.5-1.79,1.29-2.78,3.18-2.78h5.16c1.99,0,3.18,1.19,2.78,3.18-1.69,8.84-8.24,14.4-18.37,14.4-11.62,0-19.07-7.45-19.07-19.46v-13.9c0-11.92,7.15-19.46,19.07-19.46s18.87,7.75,18.87,20.06v7.25c0,1.89-.99,2.98-2.98,2.98h-23.84v3.67ZM680.5,79.04v2.68h15.59v-2.68c0-5.86-2.48-9.34-7.75-9.34-4.97,0-7.85,3.58-7.85,9.34Z"/>
        <path class="cls-2" d="M740.19,63.55v4.87c0,1.99-.3,2.98-.79,2.98h-.89c-4.87,0-10.33,4.97-10.33,11.92v25.62c0,1.99-.99,2.98-2.98,2.98h-5.16c-1.89,0-2.98-1.09-2.98-2.98v-44.99c0-1.89,1.09-2.98,2.98-2.98h4.57c1.89,0,2.98.99,2.98,2.98v3.08c1.59-3.08,6.06-6.46,10.83-6.46,0,0,1.79,1.09,1.79,2.98Z"/>
        <path class="cls-2" d="M780.21,73.78c.3,1.99-.79,3.08-2.78,3.08h-4.77c-1.89,0-2.68-.89-3.28-2.68-.89-2.88-3.08-4.47-5.96-4.47-3.97,0-5.96,1.69-5.96,5.46,0,4.27,3.77,4.97,9.24,6.56,9.04,2.48,14.6,5.96,14.6,15.1,0,9.93-6.36,16.09-17.28,16.09-10.03,0-16.68-5.86-17.98-14-.4-1.99.79-3.08,2.78-3.08h4.87c1.79,0,2.58.89,3.18,2.68.99,2.98,3.67,4.77,7.15,4.77,3.67,0,6.56-1.79,6.56-5.76,0-4.27-2.88-5.56-8.34-7.05-9.63-2.68-15.39-5.56-15.39-15.1s5.86-15.29,16.98-15.29c9.43,0,15.1,5.66,16.39,13.7Z"/>
      </g>
      <g>
        <path class="cls-2" d="M336.86,149.95c11.72,0,20.36,6.95,20.36,18.47v3.38c0,7.15-3.67,11.72-7.55,13.51,5.06,1.99,9.24,7.05,9.24,15.49v3.97c0,12.31-9.04,19.46-22.35,19.46h-20.66c-1.89,0-2.98-1.09-2.98-2.98v-68.33c0-1.99,1.09-2.98,2.98-2.98h20.95ZM324.75,181.03h10.13c5.86,0,10.33-2.58,10.33-9.14v-1.79c0-6.46-4.47-9.33-10.43-9.33h-10.03v20.26ZM324.75,213.41h10.43c6.95,0,11.72-3.18,11.72-9.93v-2.38c0-6.75-4.47-9.93-11.52-9.93h-10.63v22.25Z"/>
        <path class="cls-2" d="M381.26,156.01c0,3.68-2.98,6.46-6.55,6.46s-6.46-2.78-6.46-6.46,2.98-6.55,6.46-6.55,6.55,2.98,6.55,6.55ZM380.27,221.26c0,1.89-.99,2.98-2.98,2.98h-5.16c-1.89,0-2.98-1.09-2.98-2.98v-44.99c0-1.89,1.09-2.98,2.98-2.98h5.16c1.89,0,2.98.99,2.98,2.98v44.99Z"/>
        <path class="cls-2" d="M430.82,179.64c0,1.99-1.09,2.98-2.98,2.98h-2.28c1.19,2.19,1.89,4.47,1.89,6.65v3.97c0,10.13-7.15,16.88-18.17,16.88-2.19,0-4.17-.2-6.06-.7-.5.89-.79,1.89-.79,3.08,0,2.68,1.89,3.97,6.26,3.97h2.78c9.63,0,17.68,4.97,17.68,14.6v3.18c0,9.43-7.85,15.19-19.66,15.19s-19.76-5.76-19.76-15.19v-2.28c0-4.67,2.38-8.44,5.76-10.83-1.99-1.99-3.28-4.57-3.28-7.65,0-3.57,1.19-6.36,2.88-8.44-3.08-2.88-4.77-6.95-4.77-11.82v-3.97c0-10.23,7.45-16.88,18.27-16.88,1.99,0,3.97.3,5.66.89h13.61c1.89,0,2.98,1.09,2.98,2.98v3.38ZM407.38,225.53c-3.58.3-6.56,2.28-6.56,6.36v1.89c0,4.07,3.57,6.46,8.64,6.46s8.54-2.38,8.54-6.46v-1.99c0-4.07-3.58-6.26-8.04-6.26h-2.58ZM416.32,189.67c0-4.97-2.48-8.04-7.45-8.04s-7.45,3.08-7.45,8.04v3.18c0,4.97,2.48,8.05,7.45,8.05s7.45-3.08,7.45-8.05v-3.18Z"/>
        <path class="cls-2" d="M498.05,167.43c.2,1.99-.89,3.08-2.88,3.08h-6.16c-1.79,0-2.68-.99-3.08-2.88-.99-4.97-4.27-7.85-9.24-7.85-6.26,0-9.53,3.87-9.53,9.93,0,6.65,4.17,8.94,11.92,11.62,12.81,4.47,20.95,9.63,20.95,22.45,0,14.7-10.03,21.45-22.94,21.45s-21.85-7.05-23.44-19.86c-.2-1.99.89-3.08,2.88-3.08h6.16c1.79,0,2.68.99,3.08,2.88,1.19,5.86,5.46,9.24,11.32,9.24s10.92-2.58,10.92-9.83c0-6.75-4.47-9.04-13.31-12.12-10.63-3.67-19.56-8.34-19.56-22.15,0-11.92,8.04-21.35,21.55-21.35,11.92,0,19.86,6.75,21.35,18.47Z"/>
        <path class="cls-2" d="M521,156.01c0,3.68-2.98,6.46-6.55,6.46s-6.46-2.78-6.46-6.46,2.98-6.55,6.46-6.55,6.55,2.98,6.55,6.55ZM520,221.26c0,1.89-.99,2.98-2.98,2.98h-5.16c-1.89,0-2.98-1.09-2.98-2.98v-44.99c0-1.89,1.09-2.98,2.98-2.98h5.16c1.89,0,2.98.99,2.98,2.98v44.99Z"/>
        <path class="cls-2" d="M563.3,186.1c.3,1.99-.79,3.08-2.78,3.08h-4.77c-1.89,0-2.68-.89-3.28-2.68-.89-2.88-3.08-4.47-5.96-4.47-3.97,0-5.96,1.69-5.96,5.46,0,4.27,3.77,4.97,9.24,6.55,9.04,2.48,14.6,5.96,14.6,15.1,0,9.93-6.36,16.09-17.28,16.09-10.03,0-16.68-5.86-17.97-14-.4-1.99.79-3.08,2.78-3.08h4.87c1.79,0,2.58.89,3.18,2.68.99,2.98,3.67,4.77,7.15,4.77,3.67,0,6.56-1.79,6.56-5.76,0-4.27-2.88-5.56-8.34-7.05-9.63-2.68-15.39-5.56-15.39-15.1s5.86-15.29,16.98-15.29c9.43,0,15.1,5.66,16.39,13.7Z"/>
        <path class="cls-2" d="M587.54,207.45c0,5.56,1.49,7.65,5.26,7.65.5,0,.89,0,1.39-.1,2.09-.2,3.18.5,3.18,2.48v3.77c0,1.79-.79,2.98-2.48,3.38-1.39.3-3.08.5-5.06.5-8.24,0-13.51-4.37-13.41-14.3l.1-28.21h-4.27c-1.89,0-2.98-1.09-2.98-2.98v-3.38c0-1.99,1.09-2.98,2.98-2.98h4.27l.1-14.3c0-1.99.99-2.98,2.98-2.98h5.26c1.89,0,2.98,1.09,2.98,2.98l-.1,14.3h6.75c1.89,0,2.98.99,2.98,2.98v3.38c0,1.89-.99,2.98-2.98,2.98h-6.85l-.1,24.83Z"/>
        <path class="cls-2" d="M615.35,206.36c0,5.66,2.88,9.24,7.75,9.24,4.17,0,6.65-1.79,7.45-5.16.5-1.79,1.29-2.78,3.18-2.78h5.16c1.99,0,3.18,1.19,2.78,3.18-1.69,8.84-8.24,14.4-18.37,14.4-11.62,0-19.07-7.45-19.07-19.46v-13.9c0-11.92,7.15-19.46,19.07-19.46s18.87,7.75,18.87,20.06v7.25c0,1.89-.99,2.98-2.98,2.98h-23.84v3.67ZM615.35,191.36v2.68h15.59v-2.68c0-5.86-2.48-9.34-7.75-9.34-4.97,0-7.85,3.58-7.85,9.34Z"/>
        <path class="cls-2" d="M675.83,175.87v4.87c0,1.99-.3,2.98-.79,2.98h-.89c-4.87,0-10.33,4.97-10.33,11.92v25.62c0,1.99-.99,2.98-2.98,2.98h-5.16c-1.89,0-2.98-1.09-2.98-2.98v-44.99c0-1.89,1.09-2.98,2.98-2.98h4.57c1.89,0,2.98.99,2.98,2.98v3.08c1.59-3.08,6.06-6.46,10.83-6.46,0,0,1.79,1.09,1.79,2.98Z"/>
        <path class="cls-2" d="M715.85,186.1c.3,1.99-.79,3.08-2.78,3.08h-4.77c-1.89,0-2.68-.89-3.28-2.68-.89-2.88-3.08-4.47-5.96-4.47-3.97,0-5.96,1.69-5.96,5.46,0,4.27,3.77,4.97,9.24,6.55,9.04,2.48,14.6,5.96,14.6,15.1,0,9.93-6.36,16.09-17.28,16.09-10.03,0-16.68-5.86-17.97-14-.4-1.99.79-3.08,2.78-3.08h4.87c1.79,0,2.58.89,3.18,2.68.99,2.98,3.67,4.77,7.15,4.77,3.67,0,6.56-1.79,6.56-5.76,0-4.27-2.88-5.56-8.34-7.05-9.63-2.68-15.39-5.56-15.39-15.1s5.86-15.29,16.98-15.29c9.43,0,15.1,5.66,16.39,13.7Z"/>
        <path class="cls-2" d="M747.34,216.29c0,4.83-3.79,8.52-8.77,8.52s-8.84-3.69-8.84-8.52,3.75-8.52,8.84-8.52,8.77,3.69,8.77,8.52ZM745.84,216.29c0-4.13-3.09-7.18-7.31-7.18s-7.31,3.05-7.31,7.18,3.06,7.18,7.31,7.18,7.31-3.02,7.31-7.18ZM742.46,214.55c0,1.27-.6,2.15-1.53,2.65l1.4,3.05c.3.71,0,1.17-.76,1.17h-.1c-.56,0-.93-.23-1.16-.74l-1.4-3.05h-1.99v2.78c0,.67-.33,1.01-1,1.01h-.07c-.63,0-1-.37-1-1.01v-8.25c0-.67.37-1.01,1-1.01h2.99c2.09,0,3.62,1.01,3.62,3.05v.34ZM738.73,215.92c.93,0,1.59-.47,1.59-1.41v-.27c0-.91-.66-1.38-1.59-1.38h-1.83v3.05h1.83Z"/>
      </g>
      <g>
        <path class="cls-1" d="M336.56,297.02v10.03c0,8.09-4.49,13.15-11.88,13.15s-11.83-5.06-11.83-13.15v-10.03c0-8,4.35-13.15,11.83-13.15s11.88,5.16,11.88,13.15ZM317.21,297.12v9.84c0,5.87,2.79,9.23,7.48,9.23s7.43-3.36,7.43-9.23v-9.84c0-5.77-2.65-9.23-7.43-9.23s-7.48,3.45-7.48,9.23Z"/>
        <path class="cls-1" d="M361.31,287.04c0,.85-.43,1.28-1.28,1.28h-11.26v11.59h10.46c.85,0,1.28.43,1.28,1.28v1.37c0,.85-.43,1.28-1.28,1.28h-10.46v14.62c0,.85-.43,1.28-1.28,1.28h-1.75c-.85,0-1.28-.43-1.28-1.28v-32.84c0-.85.43-1.28,1.28-1.28h14.29c.85,0,1.28.43,1.28,1.28v1.42Z"/>
        <path class="cls-1" d="M400.58,318.31c.28.85-.14,1.42-1.09,1.42h-1.8c-.76,0-1.23-.33-1.47-1.09l-2.32-8.14h-10.98l-2.32,8.14c-.24.76-.71,1.09-1.47,1.09h-1.8c-.95,0-1.37-.57-1.09-1.42l9.37-32.88c.24-.76.71-1.09,1.47-1.09h2.7c.76,0,1.23.33,1.42,1.09l9.37,32.88ZM392.96,306.53l-4.49-15.85-4.54,15.85h9.04Z"/>
        <path class="cls-1" d="M437.54,318.46c0,.85-.43,1.28-1.28,1.28h-1.75c-.85,0-1.28-.43-1.28-1.28v-22.85l-8.99,23.14c-.24.66-.71.99-1.47.99h-.71c-.76,0-1.23-.33-1.47-.99l-8.94-23.14v22.85c0,.85-.43,1.28-1.28,1.28h-1.75c-.85,0-1.28-.43-1.28-1.28v-32.84c0-.85.43-1.28,1.28-1.28h1.94c.76,0,1.23.33,1.47.99l10.41,26.78,10.41-26.78c.24-.66.71-.99,1.47-.99h1.94c.85,0,1.28.43,1.28,1.28v32.84Z"/>
        <path class="cls-1" d="M463.61,287.04c0,.85-.43,1.28-1.28,1.28h-11.78v11.21h11.12c.85,0,1.28.43,1.28,1.28v1.42c0,.85-.43,1.28-1.28,1.28h-11.12v12.25h11.78c.85,0,1.28.43,1.28,1.28v1.42c0,.85-.43,1.28-1.28,1.28h-14.81c-.85,0-1.28-.43-1.28-1.28v-32.84c0-.85.43-1.28,1.28-1.28h14.81c.85,0,1.28.43,1.28,1.28v1.42Z"/>
        <path class="cls-1" d="M488.97,319.73c-.71,0-1.18-.28-1.47-.95l-6.58-13.82-1.28.05h-4.26v13.44c0,.85-.43,1.28-1.28,1.28h-1.75c-.85,0-1.28-.43-1.28-1.28v-32.84c0-.85.43-1.28,1.28-1.28h7.29c6.58,0,11.21,2.98,11.21,9.7v1.28c0,4.64-2.18,7.48-5.68,8.8l6.62,14.1c.43.9.05,1.51-.95,1.51h-1.89ZM479.46,301.05c4.16,0,7.05-1.7,7.05-5.82v-1.04c0-4.21-2.89-5.82-7.05-5.82h-4.07v12.68h4.07Z"/>
        <path class="cls-1" d="M503.21,318.46c0,.85-.43,1.28-1.28,1.28h-1.75c-.85,0-1.28-.43-1.28-1.28v-32.84c0-.85.43-1.28,1.28-1.28h1.75c.85,0,1.28.43,1.28,1.28v32.84Z"/>
        <path class="cls-1" d="M534.11,295.46c.05.85-.43,1.32-1.28,1.32h-1.85c-.8,0-1.23-.43-1.28-1.28-.43-4.78-2.7-7.62-7.1-7.62-4.68,0-7.14,3.55-7.14,9.23v9.84c0,5.82,2.56,9.23,7.14,9.23s6.67-2.84,7.1-7.67c.05-.85.47-1.28,1.28-1.28h1.85c.85,0,1.33.47,1.28,1.32-.57,7-4.59,11.64-11.4,11.64-7.38,0-11.59-5.11-11.59-13.15v-10.03c0-7.95,4.12-13.15,11.59-13.15,6.81,0,10.84,4.64,11.4,11.59Z"/>
        <path class="cls-1" d="M563.4,318.31c.28.85-.14,1.42-1.09,1.42h-1.8c-.76,0-1.23-.33-1.47-1.09l-2.32-8.14h-10.98l-2.32,8.14c-.24.76-.71,1.09-1.47,1.09h-1.8c-.95,0-1.37-.57-1.09-1.42l9.37-32.88c.24-.76.71-1.09,1.47-1.09h2.7c.76,0,1.23.33,1.42,1.09l9.37,32.88ZM555.78,306.53l-4.49-15.85-4.54,15.85h9.04Z"/>
      </g>
    </g>
  </g>
</svg>